<svg width="24" height="24" viewBox="0 0 24 24" fill="none" xmlns="http://www.w3.org/2000/svg">
<g clip-path="url(#clip0_620_63)">
<path d="M12 21C10.22 21 8.47992 20.4722 6.99987 19.4832C5.51983 18.4943 4.36627 17.0887 3.68508 15.4442C3.0039 13.7996 2.82567 11.9901 3.17294 10.2442C3.5202 8.4984 4.37737 6.89475 5.63604 5.63607C6.89471 4.3774 8.49834 3.5202 10.2442 3.17294C11.99 2.82567 13.7996 3.0039 15.4441 3.68508C17.0887 4.36627 18.4943 5.51986 19.4832 6.9999C20.4721 8.47995 21 10.22 21 12C20.9973 14.3862 20.0483 16.6738 18.361 18.361C16.6738 20.0483 14.3861 20.9974 12 21ZM12 4.50003C10.5166 4.50003 9.06658 4.93989 7.83322 5.764C6.59985 6.58811 5.63854 7.75946 5.07089 9.12991C4.50323 10.5004 4.35471 12.0084 4.6441 13.4632C4.93349 14.9181 5.64779 16.2544 6.69668 17.3033C7.74557 18.3522 9.08197 19.0665 10.5368 19.3559C11.9917 19.6453 13.4997 19.4968 14.8701 18.9291C16.2406 18.3614 17.4119 17.4001 18.236 16.1668C19.0601 14.9334 19.5 13.4834 19.5 12C19.4979 10.0116 18.707 8.10513 17.301 6.69906C15.8949 5.293 13.9885 4.50214 12 4.50003Z" fill="#073C5A"/>
<path d="M16.7472 11.2544C16.846 11.2527 16.9443 11.2709 17.036 11.308C17.1277 11.345 17.2109 11.4002 17.2809 11.4701C17.3508 11.5401 17.406 11.6233 17.443 11.715C17.4801 11.8067 17.4984 11.905 17.4967 12.0039C17.4991 12.1027 17.4808 12.2009 17.443 12.2922C17.4053 12.3835 17.3489 12.4659 17.2775 12.5342C17.208 12.6041 17.1254 12.6595 17.0343 12.6972C16.9433 12.7348 16.8457 12.7539 16.7472 12.7534L12.752 12.7464V16.7486C12.7525 16.8471 12.7333 16.9447 12.6957 17.0358C12.6581 17.1268 12.6027 17.2095 12.5328 17.2789C12.4645 17.3503 12.382 17.4067 12.2907 17.4445C12.1994 17.4822 12.1012 17.5005 12.0024 17.4981C11.9036 17.4998 11.8053 17.4816 11.7136 17.4445C11.6219 17.4074 11.5386 17.3523 11.4686 17.2824C11.3987 17.2124 11.3436 17.1291 11.3065 17.0374C11.2695 16.9457 11.2512 16.8475 11.2529 16.7486V12.7464H7.25067C7.15177 12.7481 7.05356 12.7298 6.96185 12.6928C6.87015 12.6557 6.78685 12.6006 6.71691 12.5306C6.64697 12.4607 6.59181 12.3773 6.55474 12.2856C6.51767 12.1939 6.49944 12.0957 6.50114 11.9968C6.50257 11.7985 6.582 11.6087 6.72226 11.4684C6.86252 11.3282 7.05232 11.2487 7.25067 11.2473H11.2529L11.2458 7.25212C11.2473 7.05378 11.3267 6.86397 11.467 6.72371C11.6072 6.58346 11.797 6.50402 11.9954 6.50259C12.0943 6.50089 12.1925 6.51913 12.2842 6.55619C12.3759 6.59326 12.4592 6.64844 12.5292 6.71838C12.5991 6.78832 12.6542 6.8716 12.6913 6.96331C12.7284 7.05501 12.7466 7.15322 12.7449 7.25212V11.2544H16.7472Z" fill="#073C5A"/>
</g>
<defs>
<clipPath id="clip0_620_63">
<rect width="24" height="24" fill="white"/>
</clipPath>
</defs>
</svg>
