<svg width="24" height="24" viewBox="0 0 24 24" fill="none" xmlns="http://www.w3.org/2000/svg">
<g clip-path="url(#clip0_96_18)">
<path d="M8.3343 15.1763C8.05519 15.4656 7.89921 15.8519 7.89921 16.2538C7.89921 16.6558 8.05519 17.0421 8.3343 17.3314C8.61688 17.6098 8.99763 17.7658 9.39431 17.7658C9.79098 17.7658 10.1717 17.6098 10.4543 17.3314L13.2079 14.5355L19.6183 8.03012C20.3203 7.30927 20.7132 6.34284 20.7132 5.33663C20.7132 4.33043 20.3203 3.36398 19.6183 2.64312C19.274 2.28855 18.8621 2.00668 18.4069 1.81419C17.9517 1.62171 17.4625 1.52253 16.9683 1.52253C16.4741 1.52253 15.9849 1.62171 15.5297 1.81419C15.0745 2.00668 14.6626 2.28855 14.3183 2.64312L10.4383 6.57658L5.0479 12.0556C3.9226 13.2101 3.29282 14.7585 3.29282 16.3707C3.29282 17.9828 3.9226 19.5312 5.0479 20.6857C5.59947 21.2517 6.2588 21.7016 6.98701 22.0088C7.71521 22.316 8.49756 22.4742 9.2879 22.4742C10.0782 22.4742 10.8606 22.316 11.5888 22.0088C12.317 21.7016 12.9763 21.2517 13.5279 20.6857L14.7279 19.4658L19.1575 14.9523C19.2268 14.8822 19.3094 14.8266 19.4004 14.7886C19.4913 14.7507 19.5889 14.7311 19.6875 14.7311C19.7861 14.7311 19.8837 14.7507 19.9747 14.7886C20.0656 14.8266 20.1482 14.8822 20.2175 14.9523C20.2888 15.0228 20.3454 15.1067 20.384 15.1991C20.4226 15.2916 20.4425 15.3909 20.4425 15.4911C20.4425 15.5913 20.4226 15.6905 20.384 15.783C20.3454 15.8755 20.2888 15.9594 20.2175 16.0299L19.9775 16.2699L15.7839 20.5433L14.5839 21.7633C13.8946 22.471 13.0704 23.0335 12.1602 23.4176C11.2499 23.8017 10.2719 23.9996 9.28391 23.9996C8.29591 23.9996 7.31792 23.8017 6.40764 23.4176C5.49737 23.0335 4.67325 22.471 3.98391 21.7633C2.57498 20.3218 1.78613 18.3863 1.78613 16.3707C1.78613 14.3551 2.57498 12.4195 3.98391 10.978L13.2543 1.55514C13.7383 1.06232 14.3157 0.670861 14.9527 0.403644C15.5897 0.136427 16.2735 -0.00120068 16.9643 -0.00120068C17.6551 -0.00120068 18.3389 0.136427 18.9759 0.403644C19.6129 0.670861 20.1903 1.06232 20.6743 1.55514C21.6601 2.56499 22.2119 3.92025 22.2119 5.33143C22.2119 6.74262 21.6601 8.09785 20.6743 9.1077L13.4839 16.4162H13.4743L11.5143 18.4082C11.2385 18.6912 10.9089 18.9161 10.5448 19.0697C10.1806 19.2233 9.78948 19.3024 9.39431 19.3024C8.99913 19.3024 8.60796 19.2233 8.24385 19.0697C7.87975 18.9161 7.55009 18.6912 7.2743 18.4082C6.71158 17.832 6.39656 17.0585 6.39656 16.2531C6.39656 15.4477 6.71158 14.6742 7.2743 14.0979L14.3847 6.87098C14.4528 6.7987 14.5349 6.74109 14.626 6.70173C14.7172 6.66236 14.8154 6.64206 14.9147 6.64206C15.014 6.64206 15.1122 6.66236 15.2034 6.70173C15.2945 6.74109 15.3766 6.7987 15.4447 6.87098C15.516 6.94144 15.5726 7.02534 15.6112 7.11783C15.6498 7.21031 15.6697 7.30953 15.6697 7.40976C15.6697 7.50998 15.6498 7.60921 15.6112 7.70169C15.5726 7.79418 15.516 7.87808 15.4447 7.94853L8.3343 15.1763Z" fill="#073C5A"/>
</g>
<defs>
<clipPath id="clip0_96_18">
<rect width="24" height="24" fill="white"/>
</clipPath>
</defs>
</svg>
