<svg width="24" height="24" viewBox="0 0 24 24" fill="none" xmlns="http://www.w3.org/2000/svg">
<g clip-path="url(#clip0_245_312)">
<path d="M16.3654 14.6577H7.63657C7.42405 14.651 7.22244 14.5619 7.07446 14.4092C6.92648 14.2566 6.84375 14.0523 6.84375 13.8397C6.84375 13.627 6.92648 13.4228 7.07446 13.2701C7.22244 13.1174 7.42405 13.0283 7.63657 13.0216H16.3654C16.4749 13.0182 16.5841 13.0368 16.6863 13.0764C16.7886 13.116 16.8818 13.1757 16.9605 13.252C17.0392 13.3283 17.1018 13.4196 17.1446 13.5206C17.1873 13.6215 17.2094 13.73 17.2094 13.8397C17.2094 13.9493 17.1873 14.0578 17.1446 14.1587C17.1018 14.2597 17.0392 14.351 16.9605 14.4273C16.8818 14.5036 16.7886 14.5633 16.6863 14.6029C16.5841 14.6425 16.4749 14.6611 16.3654 14.6577Z" fill="#073C5A"/>
<path d="M20.7274 2.728H18.4803V0.819189C18.4837 0.709616 18.4651 0.60048 18.4255 0.498242C18.3859 0.396004 18.3262 0.302744 18.2499 0.224023C18.1736 0.145303 18.0823 0.0827088 17.9814 0.0399658C17.8804 -0.00277713 17.7719 -0.0247803 17.6623 -0.0247803C17.5526 -0.0247803 17.4441 -0.00277713 17.3432 0.0399658C17.2422 0.0827088 17.1509 0.145303 17.0746 0.224023C16.9983 0.302744 16.9386 0.396004 16.899 0.498242C16.8594 0.60048 16.8408 0.709616 16.8442 0.819189V2.728H7.39625V0.819189C7.39967 0.709616 7.38105 0.60048 7.34149 0.498242C7.30192 0.396004 7.24222 0.302744 7.16592 0.224023C7.08963 0.145303 6.9983 0.0827088 6.89735 0.0399658C6.79639 -0.00277713 6.68788 -0.0247803 6.57825 -0.0247803C6.46863 -0.0247803 6.36011 -0.00277713 6.25916 0.0399658C6.15821 0.0827088 6.06688 0.145303 5.99058 0.224023C5.91429 0.302744 5.85459 0.396004 5.81502 0.498242C5.77545 0.60048 5.75683 0.709616 5.76026 0.819189V2.728H3.27305C2.767 2.72864 2.28186 2.92994 1.92403 3.28777C1.5662 3.6456 1.3649 4.13074 1.36426 4.63679V22.0912C1.36363 22.342 1.41256 22.5905 1.50826 22.8224C1.60396 23.0543 1.74456 23.265 1.92193 23.4423C2.0993 23.6197 2.30998 23.7603 2.54185 23.856C2.77372 23.9517 3.02221 24.0006 3.27305 24H20.7274C21.2335 23.9994 21.7186 23.798 22.0765 23.4402C22.4343 23.0824 22.6356 22.5972 22.6363 22.0912V4.6376C22.6335 4.13212 22.4316 3.64811 22.0742 3.2906C21.7169 2.93309 21.2329 2.73094 20.7274 2.728ZM21.0002 22.088C21.0006 22.1239 20.9937 22.1595 20.9801 22.1928C20.9665 22.226 20.9465 22.2562 20.9211 22.2816C20.8957 22.307 20.8655 22.3271 20.8322 22.3407C20.799 22.3543 20.7634 22.3611 20.7274 22.3608H3.27225C3.23633 22.3611 3.20073 22.3543 3.16749 22.3407C3.13424 22.3271 3.10404 22.307 3.07864 22.2816C3.05325 22.2562 3.03316 22.226 3.01956 22.1928C3.00597 22.1595 2.99912 22.1239 2.99944 22.088V10.3648H20.9994L21.0002 22.088ZM21.0002 8.728H3.00025V4.63679C2.99982 4.60085 3.00659 4.56518 3.02015 4.53188C3.03371 4.49859 3.05379 4.46836 3.07921 4.44294C3.10462 4.41753 3.13485 4.39744 3.16815 4.38389C3.20144 4.37033 3.23711 4.36356 3.27305 4.36399H5.76026V5.724C5.75683 5.83357 5.77545 5.94271 5.81502 6.04495C5.85459 6.14718 5.91429 6.24044 5.99058 6.31917C6.06688 6.39789 6.15821 6.46046 6.25916 6.5032C6.36011 6.54594 6.46863 6.56797 6.57825 6.56797C6.68788 6.56797 6.79639 6.54594 6.89735 6.5032C6.9983 6.46046 7.08963 6.39789 7.16592 6.31917C7.24222 6.24044 7.30192 6.14718 7.34149 6.04495C7.38105 5.94271 7.39967 5.83357 7.39625 5.724V4.36399H16.8435V5.724C16.84 5.83357 16.8587 5.94271 16.8982 6.04495C16.9378 6.14718 16.9975 6.24044 17.0738 6.31917C17.1501 6.39789 17.2414 6.46046 17.3424 6.5032C17.4433 6.54594 17.5518 6.56797 17.6615 6.56797C17.7711 6.56797 17.8796 6.54594 17.9805 6.5032C18.0815 6.46046 18.1728 6.39789 18.2491 6.31917C18.3254 6.24044 18.3851 6.14718 18.4247 6.04495C18.4643 5.94271 18.4829 5.83357 18.4795 5.724V4.36399H20.7267C20.7626 4.36367 20.7982 4.37051 20.8314 4.38411C20.8647 4.3977 20.8949 4.41779 20.9203 4.44319C20.9457 4.46858 20.9658 4.49879 20.9794 4.53203C20.9929 4.56527 20.9998 4.60088 20.9994 4.63679L21.0002 8.728Z" fill="#073C5A"/>
<path d="M16.3654 18.3592H7.63657C7.42405 18.3525 7.22244 18.2634 7.07446 18.1108C6.92648 17.9581 6.84375 17.7538 6.84375 17.5412C6.84375 17.3285 6.92648 17.1243 7.07446 16.9716C7.22244 16.8189 7.42405 16.7298 7.63657 16.7232H16.3654C16.4749 16.7198 16.5841 16.7384 16.6863 16.7779C16.7886 16.8175 16.8818 16.8772 16.9605 16.9535C17.0392 17.0298 17.1018 17.1212 17.1446 17.2221C17.1873 17.3231 17.2094 17.4315 17.2094 17.5412C17.2094 17.6508 17.1873 17.7593 17.1446 17.8603C17.1018 17.9612 17.0392 18.0526 16.9605 18.1289C16.8818 18.2052 16.7886 18.2649 16.6863 18.3044C16.5841 18.344 16.4749 18.3626 16.3654 18.3592Z" fill="#073C5A"/>
</g>
<defs>
<clipPath id="clip0_245_312">
<rect width="24" height="24" fill="white"/>
</clipPath>
</defs>
</svg>
