<svg width="40" height="40" viewBox="0 0 40 40" xmlns="http://www.w3.org/2000/svg">
    <g clip-path="url(#clip0_620_59)">
        <path
            d="M20 40C16.0444 40 12.1776 38.827 8.8886 36.6294C5.59962 34.4318 3.03618 31.3082 1.52242 27.6537C0.00867128 23.9992 -0.387403 19.9779 0.384301 16.0982C1.15601 12.2186 3.06082 8.65492 5.85787 5.85787C8.65492 3.06082 12.2186 1.15601 16.0982 0.384301C19.9779 -0.387403 23.9992 0.00867128 27.6537 1.52242C31.3082 3.03618 34.4318 5.59965 36.6294 8.88863C38.827 12.1776 40 16.0444 40 20C39.9942 25.3026 37.8852 30.3862 34.1357 34.1357C30.3863 37.8852 25.3026 39.9942 20 40ZM20 3.33303C16.7036 3.33303 13.4812 4.31054 10.7403 6.14193C7.99945 7.97332 5.86319 10.5764 4.60171 13.6219C3.34022 16.6673 3.01018 20.0185 3.65328 23.2516C4.29638 26.4847 5.88376 29.4544 8.21468 31.7854C10.5456 34.1163 13.5154 35.7037 16.7484 36.3468C19.9815 36.9899 23.3327 36.6598 26.3782 35.3983C29.4237 34.1369 32.0267 32.0006 33.8581 29.2597C35.6895 26.5189 36.667 23.2964 36.667 20C36.6625 15.581 34.9051 11.3443 31.7804 8.21963C28.6557 5.09493 24.419 3.33753 20 3.33303Z" />
        <path
            d="M29.0108 26.565C29.1759 26.7244 29.3072 26.9154 29.3969 27.1266C29.4865 27.3379 29.5327 27.565 29.5327 27.7945C29.5327 28.024 29.4865 28.2511 29.3969 28.4623C29.3072 28.6736 29.1759 28.8646 29.0108 29.024C28.8527 29.1898 28.6617 29.3208 28.4501 29.4086C28.2385 29.4964 28.0108 29.5391 27.7818 29.534C27.5533 29.5348 27.327 29.4901 27.116 29.4026C26.905 29.315 26.7135 29.1863 26.5528 29.024L20.0118 22.459L13.4468 29.024C13.286 29.1863 13.0946 29.315 12.8835 29.4026C12.6725 29.4901 12.4462 29.5348 12.2178 29.534C11.9887 29.5391 11.7611 29.4964 11.5495 29.4086C11.3378 29.3208 11.1469 29.1898 10.9888 29.024C10.8237 28.8646 10.6924 28.6736 10.6027 28.4623C10.513 28.2511 10.4668 28.024 10.4668 27.7945C10.4668 27.565 10.513 27.3379 10.6027 27.1266C10.6924 26.9154 10.8237 26.7244 10.9888 26.565L17.5538 20.001L10.9888 13.436C10.8237 13.2766 10.6924 13.0856 10.6027 12.8744C10.513 12.6632 10.4668 12.436 10.4668 12.2065C10.4668 11.977 10.513 11.7499 10.6027 11.5386C10.6924 11.3274 10.8237 11.1364 10.9888 10.977C11.3163 10.6536 11.758 10.4724 12.2183 10.4724C12.6785 10.4724 13.1203 10.6536 13.4478 10.977L20.0128 17.542L26.5538 10.977C26.8813 10.6536 27.323 10.4724 27.7833 10.4724C28.2435 10.4724 28.6853 10.6536 29.0128 10.977C29.1779 11.1364 29.3092 11.3274 29.3989 11.5386C29.4885 11.7499 29.5348 11.977 29.5348 12.2065C29.5348 12.436 29.4885 12.6632 29.3989 12.8744C29.3092 13.0856 29.1779 13.2766 29.0128 13.436L22.4478 20.001L29.0108 26.565Z" />
    </g>
    <defs>
        <clipPath id="clip0_620_59">
            <rect width="40" height="40" fill="white" />
        </clipPath>
    </defs>
</svg>