<svg width="46" height="45" viewBox="0 0 46 45" fill="none" xmlns="http://www.w3.org/2000/svg">
<path d="M23 39.375C19.5883 39.375 16.2532 38.3853 13.4164 36.5311C10.5797 34.6768 8.36869 32.0413 7.06308 28.9578C5.75747 25.8743 5.41587 22.4814 6.08146 19.2079C6.74706 15.9345 8.38996 12.9276 10.8024 10.5676C13.2149 8.20763 16.2885 6.60038 19.6347 5.94926C22.9808 5.29813 26.4493 5.6323 29.6013 6.90953C32.7533 8.18676 35.4474 10.3497 37.3428 13.1248C39.2383 15.8999 40.25 19.1625 40.25 22.5C40.2449 26.9741 38.4259 31.2634 35.192 34.427C31.958 37.5906 27.5734 39.3701 23 39.375ZM23 8.43755C20.1569 8.43755 17.3776 9.2623 15.0137 10.8075C12.6497 12.3527 10.8072 14.549 9.7192 17.1186C8.63119 19.6882 8.34653 22.5157 8.90119 25.2435C9.45585 27.9714 10.8249 30.477 12.8353 32.4437C14.8457 34.4104 17.4071 35.7497 20.1956 36.2924C22.9841 36.835 25.8744 36.5564 28.501 35.4921C31.1277 34.4277 33.3728 32.6253 34.9524 30.3127C36.5319 28.0001 37.375 25.2813 37.375 22.5C37.3709 18.7717 35.8551 15.1971 33.1602 12.5607C30.4652 9.92437 26.8112 8.44152 23 8.43755Z" fill="white"/>
<path d="M30.4466 27.8063C30.5829 27.9352 30.6913 28.0896 30.7654 28.2603C30.8394 28.431 30.8776 28.6145 30.8776 28.8C30.8776 28.9854 30.8394 29.169 30.7654 29.3397C30.6913 29.5104 30.5829 29.6649 30.4466 29.7938C30.316 29.9279 30.1581 30.0338 29.9832 30.1048C29.8083 30.1759 29.6201 30.2104 29.4308 30.2062C29.2419 30.2069 29.0548 30.1707 28.8804 30.0999C28.706 30.0291 28.5478 29.9251 28.415 29.7938L23.0099 24.4875L17.5857 29.7938C17.4529 29.9251 17.2947 30.0291 17.1203 30.0999C16.9458 30.1707 16.7587 30.2069 16.5699 30.2062C16.3806 30.2104 16.1924 30.1759 16.0175 30.1048C15.8426 30.0338 15.6847 29.9279 15.5541 29.7938C15.4177 29.6649 15.3093 29.5104 15.2353 29.3397C15.1612 29.169 15.123 28.9854 15.123 28.8C15.123 28.6145 15.1612 28.431 15.2353 28.2603C15.3093 28.0896 15.4177 27.9352 15.5541 27.8063L20.9783 22.5L15.5541 17.1937C15.4177 17.0649 15.3093 16.9105 15.2353 16.7397C15.1612 16.569 15.123 16.3855 15.123 16.2C15.123 16.0146 15.1612 15.831 15.2353 15.6602C15.3093 15.4895 15.4177 15.3351 15.5541 15.2062C15.8248 14.9452 16.1897 14.7988 16.5699 14.7988C16.9501 14.7988 17.315 14.9452 17.5857 15.2062L23.0099 20.5125L28.415 15.2062C28.6857 14.9452 29.0506 14.7988 29.4308 14.7988C29.811 14.7988 30.1759 14.9452 30.4466 15.2062C30.5829 15.3351 30.6913 15.4895 30.7654 15.6602C30.8394 15.831 30.8776 16.0146 30.8776 16.2C30.8776 16.3855 30.8394 16.569 30.7654 16.7397C30.6913 16.9105 30.5829 17.0649 30.4466 17.1937L25.0224 22.5L30.4466 27.8063Z" fill="white"/>
</svg>
