<svg width="20" height="24" viewBox="0 0 20 24" fill="none" xmlns="http://www.w3.org/2000/svg">
<path d="M16.25 24H3.25C2.78603 23.9995 2.34122 23.8149 2.01315 23.4869C1.68507 23.1588 1.50053 22.714 1.5 22.25V7.746C1.50106 7.54778 1.58054 7.35804 1.72108 7.21825C1.86162 7.07847 2.05178 7 2.25 7H17.25C17.4489 7 17.6397 7.07902 17.7803 7.21967C17.921 7.36032 18 7.55109 18 7.75V22.25C17.9995 22.714 17.8149 23.1588 17.4869 23.4869C17.1588 23.8149 16.714 23.9995 16.25 24ZM3 8.5V22.25C3 22.3163 3.02634 22.3799 3.07322 22.4268C3.12011 22.4737 3.1837 22.5 3.25 22.5H16.25C16.3163 22.5 16.3799 22.4737 16.4268 22.4268C16.4737 22.3799 16.5 22.3163 16.5 22.25V8.5H3Z" fill="#073C5A"/>
<path d="M17.75 2H13.5V1.75C13.4995 1.28604 13.3149 0.841226 12.9869 0.513152C12.6588 0.185078 12.214 0.000533933 11.75 4.59285e-06H7.75C7.52004 -0.000522843 7.29224 0.0443822 7.07969 0.132141C6.86713 0.2199 6.674 0.348784 6.51139 0.511392C6.34878 0.673999 6.2199 0.867127 6.13214 1.07969C6.04438 1.29224 5.99948 1.52004 6 1.75V2H1.75C1.52004 1.99948 1.29224 2.04438 1.07969 2.13214C0.867127 2.2199 0.673999 2.34878 0.511392 2.51139C0.348784 2.674 0.2199 2.86713 0.132141 3.07968C0.0443822 3.29224 -0.000522843 3.52004 4.59285e-06 3.75V5.25C-0.000127042 5.34853 0.0191824 5.44612 0.0568268 5.53717C0.0944712 5.62823 0.149711 5.71096 0.219381 5.78063C0.289051 5.8503 0.371783 5.90554 0.462836 5.94318C0.55389 5.98083 0.651476 6.00014 0.750005 6H18.75C18.9485 5.99869 19.1385 5.91926 19.2789 5.77889C19.4193 5.63852 19.4987 5.44851 19.5 5.25V3.75C19.4995 3.28604 19.3149 2.84123 18.9869 2.51315C18.6588 2.18508 18.214 2.00053 17.75 2ZM7.5 1.75C7.49974 1.7171 7.50602 1.68447 7.51849 1.65402C7.53096 1.62357 7.54937 1.5959 7.57263 1.57263C7.5959 1.54937 7.62357 1.53096 7.65402 1.51849C7.68447 1.50602 7.7171 1.49974 7.75 1.5H11.75C11.816 1.50104 11.879 1.52771 11.9256 1.57437C11.9723 1.62103 11.999 1.68402 12 1.75V2H7.5V1.75ZM18 4.5H1.5V3.75C1.49974 3.7171 1.50602 3.68447 1.51849 3.65402C1.53096 3.62357 1.54937 3.5959 1.57263 3.57263C1.5959 3.54937 1.62357 3.53096 1.65402 3.51849C1.68447 3.50602 1.7171 3.49974 1.75 3.5H17.75C17.816 3.50104 17.879 3.52771 17.9256 3.57437C17.9723 3.62103 17.999 3.68402 18 3.75V4.5Z" fill="#073C5A"/>
<path d="M6.24805 20.246C6.04913 20.246 5.85837 20.167 5.71772 20.0263C5.57706 19.8856 5.49805 19.6949 5.49805 19.496V11.496C5.49805 11.2971 5.57706 11.1063 5.71772 10.9656C5.85837 10.825 6.04913 10.746 6.24805 10.746C6.44696 10.746 6.63772 10.825 6.77838 10.9656C6.91903 11.1063 6.99805 11.2971 6.99805 11.496V19.496C6.99805 19.6949 6.91903 19.8856 6.77838 20.0263C6.63772 20.167 6.44696 20.246 6.24805 20.246Z" fill="#073C5A"/>
<path d="M9.748 20.246C9.55013 20.2455 9.36048 20.1668 9.22037 20.027C9.08026 19.8873 9.00105 19.6979 9 19.5V11.5C9 11.3011 9.07902 11.1103 9.21967 10.9697C9.36032 10.829 9.55109 10.75 9.75 10.75C9.94891 10.75 10.1397 10.829 10.2803 10.9697C10.421 11.1103 10.5 11.3011 10.5 11.5V19.5C10.5 19.6989 10.421 19.8897 10.2803 20.0303C10.1397 20.171 9.94891 20.25 9.75 20.25" fill="#073C5A"/>
<path d="M13.248 20.246C13.0491 20.246 12.8584 20.167 12.7177 20.0263C12.5771 19.8856 12.498 19.6949 12.498 19.496V11.496C12.498 11.2971 12.5771 11.1063 12.7177 10.9656C12.8584 10.825 13.0491 10.746 13.248 10.746C13.447 10.746 13.6377 10.825 13.7784 10.9656C13.919 11.1063 13.998 11.2971 13.998 11.496V19.496C13.998 19.6949 13.919 19.8856 13.7784 20.0263C13.6377 20.167 13.447 20.246 13.248 20.246Z" fill="#073C5A"/>
</svg>
