<svg width="20" height="25" viewBox="0 0 20 25" fill="none" xmlns="http://www.w3.org/2000/svg">
<path d="M16.25 24.5765H3.25C2.78603 24.576 2.34122 24.3882 2.01315 24.0542C1.68507 23.7203 1.50053 23.2675 1.5 22.7952V8.03172C1.50106 7.82995 1.58054 7.63682 1.72108 7.49453C1.86162 7.35224 2.05178 7.27237 2.25 7.27237H17.25C17.4489 7.27237 17.6397 7.3528 17.7803 7.49597C17.921 7.63914 18 7.83332 18 8.03579V22.7952C17.9995 23.2675 17.8149 23.7203 17.4869 24.0542C17.1588 24.3882 16.714 24.576 16.25 24.5765ZM3 8.79921V22.7952C3 22.8627 3.02634 22.9274 3.07322 22.9752C3.12011 23.0229 3.1837 23.0497 3.25 23.0497H16.25C16.3163 23.0497 16.3799 23.0229 16.4268 22.9752C16.4737 22.9274 16.5 22.8627 16.5 22.7952V8.79921H3Z" fill="#073C5A"/>
<path d="M17.75 2.18292H13.5V1.92844C13.4995 1.45617 13.3149 1.0034 12.9869 0.669459C12.6588 0.335515 12.214 0.147669 11.75 0.14713H7.75C7.52004 0.146593 7.29224 0.192302 7.07969 0.281631C6.86713 0.37096 6.674 0.50215 6.51139 0.667667C6.34878 0.833184 6.2199 1.02977 6.13214 1.24613C6.04438 1.46249 5.99948 1.69437 6 1.92844V2.18292H1.75C1.52004 2.18238 1.29224 2.22809 1.07969 2.31742C0.867127 2.40675 0.673999 2.53794 0.511392 2.70345C0.348784 2.86897 0.2199 3.06555 0.132141 3.28191C0.0443822 3.49828 -0.000522843 3.73015 4.59285e-06 3.96423V5.49107C-0.000127042 5.59136 0.0191824 5.69069 0.0568268 5.78337C0.0944712 5.87606 0.149711 5.96027 0.219381 6.03118C0.289051 6.1021 0.371783 6.15833 0.462836 6.19665C0.55389 6.23497 0.651476 6.25462 0.750005 6.25449H18.75C18.9485 6.25315 19.1385 6.17229 19.2789 6.02941C19.4193 5.88653 19.4987 5.69313 19.5 5.49107V3.96423C19.4995 3.49196 19.3149 3.03919 18.9869 2.70524C18.6588 2.3713 18.214 2.18345 17.75 2.18292ZM7.5 1.92844C7.49974 1.89495 7.50602 1.86174 7.51849 1.83074C7.53096 1.79974 7.54937 1.77158 7.57263 1.7479C7.5959 1.72421 7.62357 1.70548 7.65402 1.69279C7.68447 1.68009 7.7171 1.6737 7.75 1.67397H11.75C11.816 1.67502 11.879 1.70217 11.9256 1.74966C11.9723 1.79716 11.999 1.86128 12 1.92844V2.18292H7.5V1.92844ZM18 4.72765H1.5V3.96423C1.49974 3.93073 1.50602 3.89752 1.51849 3.86652C1.53096 3.83553 1.54937 3.80737 1.57263 3.78368C1.5959 3.76 1.62357 3.74127 1.65402 3.72857C1.68447 3.71588 1.7171 3.70948 1.75 3.70975H17.75C17.816 3.7108 17.879 3.73795 17.9256 3.78545C17.9723 3.83295 17.999 3.89706 18 3.96423V4.72765Z" fill="#073C5A"/>
<path d="M6.24805 20.7553C6.04913 20.7553 5.85837 20.6749 5.71772 20.5317C5.57706 20.3886 5.49805 20.1944 5.49805 19.9919V11.8488C5.49805 11.6463 5.57706 11.4521 5.71772 11.309C5.85837 11.1658 6.04913 11.0854 6.24805 11.0854C6.44696 11.0854 6.63772 11.1658 6.77838 11.309C6.91903 11.4521 6.99805 11.6463 6.99805 11.8488V19.9919C6.99805 20.1944 6.91903 20.3886 6.77838 20.5317C6.63772 20.6749 6.44696 20.7553 6.24805 20.7553Z" fill="#073C5A"/>
<path d="M9.748 20.7554C9.55013 20.7549 9.36048 20.6747 9.22037 20.5325C9.08026 20.3903 9.00105 20.1975 9 19.996V11.8529C9 11.6504 9.07902 11.4562 9.21967 11.3131C9.36032 11.1699 9.55109 11.0895 9.75 11.0895C9.94891 11.0895 10.1397 11.1699 10.2803 11.3131C10.421 11.4562 10.5 11.6504 10.5 11.8529V19.996C10.5 20.1985 10.421 20.3927 10.2803 20.5359C10.1397 20.679 9.94891 20.7595 9.75 20.7595" fill="#073C5A"/>
<path d="M13.248 20.7553C13.0491 20.7553 12.8584 20.6749 12.7177 20.5317C12.5771 20.3886 12.498 20.1944 12.498 19.9919V11.8488C12.498 11.6463 12.5771 11.4521 12.7177 11.309C12.8584 11.1658 13.0491 11.0854 13.248 11.0854C13.447 11.0854 13.6377 11.1658 13.7784 11.309C13.919 11.4521 13.998 11.6463 13.998 11.8488V19.9919C13.998 20.1944 13.919 20.3886 13.7784 20.5317C13.6377 20.6749 13.447 20.7553 13.248 20.7553Z" fill="#073C5A"/>
</svg>
