<svg width="25" height="23" viewBox="0 0 25 23" fill="none" xmlns="http://www.w3.org/2000/svg">
    <path
        d="M5.14809 7.71335C5.24574 7.71316 5.34247 7.73099 5.43272 7.76589C5.52297 7.80079 5.60494 7.85206 5.67396 7.9167L11.9884 13.827C12.0352 13.8703 12.0983 13.8945 12.164 13.8945C12.2297 13.8945 12.2928 13.8703 12.3396 13.827L18.654 7.9167C18.7936 7.78605 18.983 7.71261 19.1804 7.71261C19.3778 7.71261 19.5672 7.78605 19.7068 7.9167C19.8464 8.04735 19.9248 8.2245 19.9248 8.40927C19.9248 8.59403 19.8464 8.77124 19.7068 8.90189L13.3914 14.8113C13.0655 15.1154 12.6241 15.2861 12.164 15.2861C11.7039 15.2861 11.2625 15.1154 10.9366 14.8113L4.62222 8.90189C4.5178 8.80467 4.44662 8.68062 4.41768 8.54546C4.38875 8.41029 4.40336 8.27009 4.45971 8.14272C4.51606 8.01536 4.6116 7.90656 4.73417 7.8301C4.85673 7.75364 5.00079 7.71302 5.14809 7.71335Z"
        fill="#073c5a" />
</svg>