<svg width="64" height="63" viewBox="0 0 64 63" fill="none" xmlns="http://www.w3.org/2000/svg">
<path d="M51.5 0H12.5C5.87258 0 0.5 5.37258 0.5 12V51C0.5 57.6274 5.87258 63 12.5 63H51.5C58.1274 63 63.5 57.6274 63.5 51V12C63.5 5.37258 58.1274 0 51.5 0Z" fill="#073C5A"/>
<path d="M51.5 0.75H12.5C6.2868 0.75 1.25 5.7868 1.25 12V51C1.25 57.2132 6.2868 62.25 12.5 62.25H51.5C57.7132 62.25 62.75 57.2132 62.75 51V12C62.75 5.7868 57.7132 0.75 51.5 0.75Z" stroke="#063B58"/>
<path d="M21.3933 25.3831C21.5409 25.3828 21.6871 25.4116 21.8236 25.468C21.96 25.5243 22.0839 25.6072 22.1883 25.7116L31.7343 35.2591C31.805 35.3289 31.9004 35.368 31.9998 35.368C32.0992 35.368 32.1946 35.3289 32.2653 35.2591L41.8113 25.7116C42.0223 25.5005 42.3086 25.3819 42.6071 25.3819C42.9055 25.3819 43.1917 25.5005 43.4028 25.7116C43.6138 25.9226 43.7324 26.2088 43.7324 26.5073C43.7324 26.8057 43.6138 27.092 43.4028 27.303L33.8553 36.8491C33.3627 37.3402 32.6954 37.616 31.9998 37.616C31.3042 37.616 30.6369 37.3402 30.1443 36.8491L20.5983 27.303C20.4404 27.146 20.3328 26.9456 20.2891 26.7273C20.2453 26.5089 20.2674 26.2824 20.3526 26.0767C20.4378 25.8709 20.5822 25.6952 20.7675 25.5717C20.9528 25.4482 21.1706 25.3826 21.3933 25.3831Z" fill="white"/>
</svg>
