<svg width="24" height="32" viewBox="0 0 24 32" fill="none" xmlns="http://www.w3.org/2000/svg">
<g clip-path="url(#clip0_620_69)">
<path d="M14 8.5V4.50678e-06H1.5C1.10218 4.50678e-06 0.720644 0.15804 0.43934 0.439344C0.158035 0.720649 0 1.10218 0 1.5L0 30.5C0 30.8978 0.158035 31.2794 0.43934 31.5607C0.720644 31.842 1.10218 32 1.5 32H22.5C22.8978 32 23.2794 31.842 23.5607 31.5607C23.842 31.2794 24 30.8978 24 30.5V10H15.5C15.1022 10 14.7206 9.84197 14.4393 9.56067C14.158 9.27936 14 8.89783 14 8.5ZM17.756 15.156L14 21L17.756 26.844C17.8286 26.9574 17.8694 27.0882 17.8741 27.2227C17.8788 27.3573 17.8473 27.4906 17.7828 27.6088C17.7182 27.727 17.6232 27.8257 17.5074 27.8945C17.3917 27.9633 17.2596 27.9997 17.125 28H14.944C14.8084 28 14.6753 27.9634 14.5588 27.8941C14.4423 27.8247 14.3466 27.7252 14.282 27.606C13.056 25.344 12 23.313 12 23.313C11.6 24.238 11.375 24.563 9.712 27.613C9.64868 27.732 9.55418 27.8315 9.43862 27.9009C9.32306 27.9704 9.1908 28.007 9.056 28.007H6.875C6.74037 28.0067 6.60827 27.9703 6.49256 27.9015C6.37684 27.8327 6.28175 27.734 6.21725 27.6158C6.15274 27.4976 6.12119 27.3643 6.12589 27.2297C6.1306 27.0952 6.17139 26.9644 6.244 26.851L10.013 21.007L6.244 15.163C6.1707 15.0498 6.12934 14.9188 6.12429 14.784C6.11925 14.6492 6.1507 14.5155 6.21533 14.3971C6.27997 14.2787 6.37538 14.18 6.49149 14.1113C6.6076 14.0426 6.7401 14.0066 6.875 14.007H9.05C9.18577 14.0068 9.31906 14.0433 9.43577 14.1127C9.55248 14.182 9.64827 14.2817 9.713 14.401C11.344 17.451 10.963 16.501 12.001 18.682C12.001 18.682 12.382 17.951 14.288 14.401C14.3526 14.2818 14.4483 14.1823 14.5648 14.1129C14.6813 14.0436 14.8144 14.007 14.95 14.007H17.125C17.2593 14.0061 17.3914 14.0415 17.5073 14.1095C17.6231 14.1775 17.7184 14.2756 17.7831 14.3934C17.8477 14.5111 17.8794 14.6442 17.8746 14.7784C17.8698 14.9127 17.8289 15.0431 17.756 15.156ZM24 7.619V8H16V4.50678e-06H16.381C16.5783 -0.000479079 16.7737 0.0379592 16.9561 0.113118C17.1385 0.188277 17.3043 0.29868 17.444 0.438004L23.563 6.563C23.8423 6.84355 23.9994 7.22313 24 7.619Z" fill="#157195"/>
</g>
<defs>
<clipPath id="clip0_620_69">
<rect width="24" height="32" fill="white"/>
</clipPath>
</defs>
</svg>
