<svg width="24" height="24" viewBox="0 0 24 24" xmlns="http://www.w3.org/2000/svg">
    <g clip-path="url(#clip0_432_81)">
        <path
            d="M22.091 23.9999H1.9089C1.40361 23.9989 0.919307 23.7977 0.561937 23.4405C0.204567 23.0832 0.00322107 22.5989 0.00195313 22.0935V14.4535C0.00195312 14.2365 0.0881713 14.0284 0.241631 13.8749C0.39509 13.7214 0.603216 13.6351 0.82024 13.6351C1.03726 13.6351 1.2454 13.7214 1.39886 13.8749C1.55232 14.0284 1.63853 14.2365 1.63853 14.4535V22.0935C1.63874 22.1658 1.66756 22.2351 1.71867 22.2862C1.76978 22.3373 1.83902 22.3661 1.91129 22.3663H22.0934C22.1658 22.3663 22.2351 22.3376 22.2863 22.2865C22.3374 22.2353 22.3662 22.1659 22.3662 22.0935V14.4535C22.3662 14.3461 22.3873 14.2396 22.4285 14.1404C22.4696 14.0411 22.5299 13.9508 22.6059 13.8748C22.6818 13.7988 22.772 13.7386 22.8713 13.6974C22.9706 13.6563 23.077 13.6351 23.1845 13.6351C23.2919 13.6351 23.3983 13.6563 23.4976 13.6974C23.5969 13.7386 23.6871 13.7988 23.7631 13.8748C23.8391 13.9508 23.8993 14.0411 23.9405 14.1404C23.9816 14.2396 24.0028 14.3461 24.0028 14.4535V22.0935C24.0015 22.5997 23.7995 23.0848 23.4411 23.4422C23.0827 23.7996 22.5971 24.0001 22.091 23.9999Z" />
        <path
            d="M18.7516 10.8888C18.6769 10.8106 18.5872 10.7484 18.4878 10.7059C18.3884 10.6634 18.2814 10.6415 18.1733 10.6415C18.0652 10.6415 17.9582 10.6634 17.8588 10.7059C17.7594 10.7484 17.6696 10.8106 17.595 10.8888L12.8172 15.6672V0.818359C12.8172 0.601306 12.731 0.393177 12.5775 0.239697C12.4241 0.0862175 12.2159 0 11.9989 0C11.7819 0 11.5737 0.0862175 11.4203 0.239697C11.2668 0.393177 11.1806 0.601306 11.1806 0.818359V15.668L6.40284 10.8896C6.32846 10.8115 6.23862 10.7498 6.13903 10.7085C6.03945 10.6672 5.93232 10.6471 5.82453 10.6496C5.71702 10.6491 5.61049 10.6701 5.51119 10.7113C5.41189 10.7525 5.32182 10.8132 5.24621 10.8896C5.09409 11.0437 5.00879 11.2514 5.00879 11.468C5.00879 11.6845 5.09409 11.8923 5.24621 12.0464L10.6463 17.4472C10.9606 17.7649 11.3789 17.9587 11.8245 17.9928C11.8789 17.9928 11.9445 18.004 11.9989 18.004C12.0533 18.004 12.1189 17.9928 12.1733 17.9928C12.6189 17.9586 13.0372 17.7649 13.3515 17.4472L18.7516 12.0464C18.904 11.8923 18.9894 11.6843 18.9894 11.4676C18.9894 11.2509 18.904 11.0429 18.7516 10.8888Z" />
    </g>
    <defs>
        <clipPath id="clip0_432_81">
            <rect width="24" height="24" fill="white" />
        </clipPath>
    </defs>
</svg>