<svg width="24" height="24" viewBox="0 0 24 24" fill="none" xmlns="http://www.w3.org/2000/svg">
<g clip-path="url(#clip0_695_297)">
<path d="M19.48 20.201C19.4089 20.1323 19.3523 20.0499 19.3137 19.9589C19.275 19.8678 19.2551 19.7699 19.2551 19.671C19.2551 19.5721 19.275 19.4742 19.3137 19.3831C19.3523 19.2921 19.4089 19.2097 19.48 19.141L21.86 16.759H8.25C8.05109 16.759 7.86032 16.68 7.71967 16.5393C7.57902 16.3987 7.5 16.2079 7.5 16.009C7.5 15.8101 7.57902 15.6193 7.71967 15.4787C7.86032 15.338 8.05109 15.259 8.25 15.259H21.86L19.48 12.879C19.4085 12.8108 19.352 12.7285 19.3141 12.6372C19.2762 12.546 19.2578 12.4478 19.26 12.349C19.2596 12.2505 19.2789 12.1529 19.3167 12.0619C19.3545 11.9709 19.41 11.8883 19.48 11.819C19.6211 11.6795 19.8116 11.6013 20.01 11.6013C20.2084 11.6013 20.3989 11.6795 20.54 11.819L23.49 14.769C23.7814 15.057 23.9589 15.4405 23.99 15.849C23.99 15.899 24 15.959 24 16.009C24 16.059 23.99 16.119 23.99 16.169C23.9589 16.5775 23.7814 16.961 23.49 17.249L20.54 20.201C20.3987 20.3402 20.2084 20.4183 20.01 20.4183C19.8116 20.4183 19.6213 20.3402 19.48 20.201Z" fill="#073C5A"/>
<path d="M17.25 20.25C17.1515 20.2499 17.0539 20.2692 16.9628 20.3068C16.8718 20.3445 16.789 20.3997 16.7194 20.4694C16.6497 20.539 16.5945 20.6218 16.5568 20.7128C16.5192 20.8039 16.4999 20.9015 16.5 21V22.25C16.499 22.316 16.4723 22.379 16.4256 22.4257C16.3789 22.4723 16.316 22.499 16.25 22.5H1.75C1.7171 22.5003 1.68444 22.494 1.65399 22.4815C1.62354 22.4691 1.5959 22.4507 1.57263 22.4274C1.54936 22.4041 1.53096 22.3765 1.51849 22.346C1.50602 22.3156 1.49973 22.2829 1.5 22.25V1.75002C1.49973 1.71711 1.50602 1.68446 1.51849 1.65401C1.53096 1.62356 1.54936 1.59592 1.57263 1.57265C1.5959 1.54938 1.62354 1.53098 1.65399 1.51851C1.68444 1.50604 1.7171 1.49975 1.75 1.50002H10.5V5.75002C10.5005 6.21398 10.685 6.65882 11.0131 6.98689C11.3412 7.31497 11.786 7.49949 12.25 7.50002H16.49V11C16.49 11.1989 16.569 11.3897 16.7097 11.5304C16.8503 11.671 17.0411 11.75 17.24 11.75C17.4389 11.75 17.6297 11.671 17.7703 11.5304C17.911 11.3897 17.99 11.1989 17.99 11V6.75002C17.9878 6.55158 17.909 6.36165 17.77 6.21999L16.49 4.94002V4.93001L13.06 1.50002H13.05L11.77 0.219987C11.7034 0.14922 11.6227 0.0931308 11.5331 0.0552533C11.4436 0.0173759 11.3472 -0.00143018 11.25 1.65245e-05H1.75C1.28603 0.000545865 0.841197 0.185065 0.513123 0.513139C0.185049 0.841213 0.00052934 1.28605 0 1.75002V22.25C0.00052934 22.714 0.185049 23.1588 0.513123 23.4869C0.841197 23.815 1.28603 23.9995 1.75 24H16.25C16.7135 23.9979 17.1574 23.8129 17.4851 23.4851C17.8128 23.1574 17.9979 22.7135 18 22.25V21C17.9987 20.8015 17.9192 20.6115 17.7789 20.4711C17.6385 20.3308 17.4485 20.2513 17.25 20.25ZM12 2.56001L15.43 6.00002H12.25C12.2171 6.00028 12.1844 5.99399 12.154 5.98152C12.1235 5.96905 12.0959 5.95065 12.0726 5.92738C12.0494 5.90412 12.031 5.87648 12.0185 5.84602C12.006 5.81557 11.9997 5.78292 12 5.75002V2.56001Z" fill="#073C5A"/>
</g>
<defs>
<clipPath id="clip0_695_297">
<rect width="24" height="24" fill="white"/>
</clipPath>
</defs>
</svg>
