<svg width="24" height="24" viewBox="0 0 24 24" xmlns="http://www.w3.org/2000/svg">
    <g clip-path="url(#clip0_429_61)">
        <path
            d="M14.0003 24.0008C13.8839 24.0003 13.7692 23.9729 13.6651 23.9207L9.66508 21.9207C9.54024 21.8586 9.43521 21.7629 9.36186 21.6443C9.2885 21.5257 9.24969 21.389 9.24984 21.2496V13.3296L1.34667 2.80478C1.0685 2.43319 0.949098 1.96641 1.01464 1.50688C1.08018 1.04735 1.32532 0.632577 1.69628 0.353561C1.99845 0.124125 2.36806 0.00118577 2.74745 0.00395193H21.2474C21.7114 0.00458731 22.1562 0.189231 22.4842 0.51738C22.8122 0.845529 22.9966 1.29038 22.9971 1.75434C22.9995 2.13583 22.8745 2.50723 22.6418 2.80957L14.7467 13.3344V23.2543C14.7472 23.3826 14.7147 23.5088 14.6523 23.6209C14.59 23.733 14.4999 23.8272 14.3907 23.8944C14.273 23.9655 14.1378 24.0023 14.0003 24.0008ZM10.7507 20.7872L13.2507 22.0368V13.0808C13.2506 12.9185 13.3034 12.7607 13.4011 12.6311L21.4507 1.90156C21.4839 1.8588 21.5016 1.80607 21.5011 1.75195C21.5002 1.68593 21.4737 1.62288 21.4271 1.57612C21.3805 1.52936 21.3175 1.5026 21.2515 1.50156H2.75067C2.6983 1.5002 2.647 1.51654 2.60507 1.54795C2.55115 1.58774 2.51511 1.64722 2.50477 1.71342C2.49444 1.77963 2.51062 1.84723 2.54984 1.90156L10.5995 12.6311C10.6973 12.7606 10.7504 12.9185 10.7507 13.0808V20.7872Z" />
    </g>
    <defs>
        <clipPath id="clip0_429_61">
            <rect width="24" height="24" fill="white" />
        </clipPath>
    </defs>
</svg>