<svg xmlns="http://www.w3.org/2000/svg" width="30" height="30" viewBox="0 0 30 30">
  <g id="Group_5863" data-name="Group 5863" transform="translate(-0.095 0)">
    <rect id="Rectangle_3309" data-name="Rectangle 3309" width="30" height="30" transform="translate(0.095 0)" fill="none"/>
    <g id="Group_2578" data-name="Group 2578" transform="translate(0.795 0.001)">
      <path id="Path_11318" data-name="Path 11318" d="M497.537,414.186h-8.864a1.023,1.023,0,0,1,0-2.045h8.864a1.023,1.023,0,1,1,0,2.045Z" transform="translate(-480.836 -398.845)" />
      <path id="Path_11319" data-name="Path 11319" d="M497.537,410.186h-8.864a1.023,1.023,0,0,1,0-2.046h8.864a1.023,1.023,0,1,1,0,2.046Z" transform="translate(-480.836 -400.299)"/>
      <path id="Path_11320" data-name="Path 11320" d="M497.537,418.186h-8.864a1.023,1.023,0,0,1,0-2.046h8.864a1.023,1.023,0,1,1,0,2.046Z" transform="translate(-480.836 -397.39)"/>
      <path id="Path_11321" data-name="Path 11321" d="M510.267,426.254H507.2V404.776a2.4,2.4,0,0,0-2.386-2.386H485.039a2.389,2.389,0,0,0-2.386,2.386V430a2.346,2.346,0,0,0,2.182,2.359,1.053,1.053,0,0,0,.2.027H508.9A2.4,2.4,0,0,0,511.289,430v-2.727A1.03,1.03,0,0,0,510.267,426.254ZM484.7,430V404.776a.338.338,0,0,1,.341-.341h19.773a.338.338,0,0,1,.341.341v21.477H486.4a1.03,1.03,0,0,0-1.023,1.023V430a.341.341,0,0,1-.682,0Zm24.546,0a.338.338,0,0,1-.341.341H487.4a2.862,2.862,0,0,0,.027-.341v-1.7h21.818Z" transform="translate(-482.653 -402.39)" />
    </g>
  </g>
</svg>
