<svg width="24" height="24" viewBox="0 0 24 24" fill="none" xmlns="http://www.w3.org/2000/svg">
<path d="M12 24C9.62664 24 7.30656 23.2962 5.33317 21.9777C3.35978 20.6591 1.8217 18.7849 0.913445 16.5922C0.00519381 14.3995 -0.232439 11.9867 0.230584 9.6589C0.693607 7.33113 1.83648 5.19295 3.51471 3.51471C5.19295 1.83648 7.33116 0.693607 9.65893 0.230584C11.9867 -0.232439 14.3995 0.00519381 16.5922 0.913445C18.7849 1.8217 20.6591 3.35978 21.9777 5.33317C23.2962 7.30656 24 9.62664 24 12C23.9964 15.1815 22.731 18.2317 20.4813 20.4813C18.2317 22.731 15.1815 23.9964 12 24ZM12 1.50002C9.92331 1.50002 7.89324 2.11584 6.16652 3.2696C4.43981 4.42335 3.09398 6.06323 2.29926 7.98185C1.50454 9.90048 1.29661 12.0117 1.70175 14.0485C2.1069 16.0853 3.10693 17.9562 4.57538 19.4246C6.04384 20.8931 7.91476 21.8931 9.95156 22.2983C11.9884 22.7034 14.0996 22.4955 16.0182 21.7008C17.9368 20.906 19.5767 19.5602 20.7304 17.8335C21.8842 16.1068 22.5 14.0767 22.5 12C22.4971 9.21615 21.3898 6.54717 19.4214 4.57868C17.4529 2.61019 14.7839 1.50298 12 1.50002Z" fill="#073C5A"/>
<path d="M15.4893 10.4888C15.4323 10.655 15.363 10.8168 15.2821 10.9728C14.9362 11.6624 14.3786 12.2231 13.6909 12.5728C13.6613 12.5824 13.6413 12.5928 13.6109 12.6024C13.5932 12.61 13.5765 12.62 13.5613 12.632C13.1718 12.8468 12.8514 13.1678 12.6373 13.5578C12.4233 13.9477 12.3246 14.3905 12.3525 14.8344C12.3566 14.9527 12.3376 15.0706 12.2965 15.1816C12.2377 15.3079 12.1442 15.4149 12.027 15.4901C11.9097 15.5653 11.7734 15.6057 11.6341 15.6064C11.4945 15.6069 11.3578 15.5671 11.2403 15.4917C11.1228 15.4164 11.0295 15.3087 10.9717 15.1816C10.9309 15.079 10.904 14.9714 10.8917 14.8616V14.8416C10.8424 14.109 11.0126 13.3784 11.3805 12.743C11.7484 12.1076 12.2974 11.5963 12.9573 11.2744C13.3535 11.0826 13.6837 10.7774 13.9061 10.3976C14.1285 10.0179 14.2331 9.58056 14.2066 9.14124C14.1801 8.70191 14.0238 8.28037 13.7573 7.93005C13.4909 7.57974 13.1264 7.31646 12.7101 7.17361C12.4743 7.09513 12.2274 7.05514 11.9789 7.0552C11.644 7.05422 11.3132 7.12862 11.0109 7.27283C10.7028 7.42423 10.4327 7.64295 10.2205 7.91282C10.0741 8.10358 9.96054 8.31746 9.88455 8.54563C9.83634 8.69339 9.80309 8.84562 9.78533 9.00002C9.77618 9.19631 9.6941 9.38208 9.55515 9.52102C9.41621 9.65996 9.23041 9.74204 9.03413 9.7512C8.93737 9.75389 8.84106 9.73706 8.75095 9.70168C8.66085 9.66631 8.57882 9.6131 8.50974 9.54529C8.44066 9.47748 8.38595 9.39644 8.3489 9.30701C8.31186 9.21758 8.29324 9.12163 8.29414 9.02483C8.29274 8.94045 8.29888 8.85611 8.31253 8.77283C8.34504 8.53082 8.40133 8.29257 8.48054 8.0616C8.64238 7.59332 8.89798 7.16296 9.23174 6.7968C9.50815 6.47852 9.84367 6.21688 10.2197 6.02639C10.2636 5.99604 10.3099 5.96931 10.3581 5.94641C11.2417 5.51701 12.2592 5.4547 13.1886 5.77307C14.1179 6.09144 14.8835 6.76465 15.3181 7.64563C15.5346 8.08426 15.6613 8.56168 15.6907 9.04993C15.72 9.53817 15.6516 10.0274 15.4893 10.4888Z" fill="#073C5A"/>
<path d="M11.6247 18.4232C12.1704 18.4232 12.6127 17.9808 12.6127 17.4352C12.6127 16.8895 12.1704 16.4472 11.6247 16.4472C11.0791 16.4472 10.6367 16.8895 10.6367 17.4352C10.6367 17.9808 11.0791 18.4232 11.6247 18.4232Z" fill="#073C5A"/>
</svg>
