<svg width="24" height="24" viewBox="0 0 24 24" fill="none" xmlns="http://www.w3.org/2000/svg">
<g clip-path="url(#clip0_693_266)">
<path d="M23.2488 6.67597C23.0534 6.67897 22.8648 6.60434 22.7245 6.46845C22.5841 6.33256 22.5034 6.14657 22.5 5.95121V2.56L15.876 9.18398C15.7353 9.32454 15.5446 9.40349 15.3457 9.40341C15.1468 9.40334 14.9561 9.32426 14.8156 9.18359C14.675 9.04292 14.5961 8.85218 14.5962 8.65331C14.5963 8.45445 14.6753 8.26375 14.816 8.12319L21.4384 1.49999H18.072C17.9732 1.50255 17.8749 1.48438 17.7835 1.44662C17.6922 1.40887 17.6098 1.35238 17.5416 1.2808C17.4717 1.21136 17.4163 1.1287 17.3787 1.03764C17.341 0.946577 17.3219 0.848916 17.3224 0.750384C17.3235 0.552039 17.4026 0.362098 17.5428 0.221771C17.683 0.0814429 17.8728 0.00203504 18.0712 0.000774456H22.2432C22.654 -0.00211454 23.0519 0.144003 23.3632 0.412005C23.3992 0.447205 23.448 0.481571 23.484 0.517571C23.52 0.553571 23.5536 0.601591 23.5896 0.637591C23.8572 0.949101 24.003 1.34696 24 1.75761V5.92958C23.9977 6.12766 23.9177 6.31692 23.7771 6.45654C23.6366 6.59615 23.4469 6.67493 23.2488 6.67597Z" fill="#CCCCCC"/>
<path d="M0.75206 6.67513C0.946801 6.67856 1.13498 6.60473 1.27545 6.46981C1.41592 6.33489 1.49726 6.14983 1.50167 5.95511V2.5639L8.12486 9.18792C8.26684 9.32208 8.45552 9.39557 8.65084 9.39281C8.84616 9.39004 9.03273 9.31125 9.17086 9.17313C9.30898 9.035 9.38777 8.84843 9.39054 8.65311C9.3933 8.45779 9.31981 8.26911 9.18565 8.12713L2.56163 1.50311H5.92726C6.02619 1.50563 6.12454 1.48744 6.21603 1.44969C6.30751 1.41194 6.3901 1.35548 6.45846 1.28392C6.5284 1.21451 6.58381 1.13187 6.62145 1.0408C6.65908 0.949735 6.67818 0.852038 6.67765 0.753499C6.67618 0.555146 6.59676 0.365342 6.4565 0.225082C6.31624 0.0848207 6.12639 0.00540443 5.92804 0.00393896H1.75606C1.34563 0.00139948 0.948002 0.146781 0.636045 0.413509C0.600845 0.449509 0.551274 0.484736 0.516074 0.520736C0.480874 0.556736 0.444859 0.600707 0.410459 0.640706C0.142491 0.951993 -0.00334426 1.35 5.82202e-05 1.76073V5.93031C0.00237078 6.12837 0.0825682 6.31758 0.2233 6.45697C0.364033 6.59635 0.553986 6.67472 0.75206 6.67513Z" fill="#CCCCCC"/>
<path d="M23.2496 17.3232C23.0549 17.3197 22.8667 17.3936 22.7262 17.5285C22.5858 17.6634 22.5044 17.8485 22.5 18.0432V21.4344L15.876 14.8104C15.8064 14.7408 15.7237 14.6856 15.6327 14.6479C15.5417 14.6103 15.4442 14.5909 15.3457 14.5909C15.2472 14.591 15.1497 14.6104 15.0588 14.6481C14.9678 14.6858 14.8852 14.7411 14.8156 14.8108C14.746 14.8804 14.6908 14.9631 14.6532 15.0541C14.6155 15.1451 14.5962 15.2426 14.5962 15.341C14.5962 15.4395 14.6157 15.537 14.6534 15.628C14.6911 15.7189 14.7464 15.8016 14.816 15.8712L21.44 22.4952H18.0776C17.9788 22.4926 17.8805 22.5107 17.7892 22.5485C17.6978 22.5862 17.6154 22.6428 17.5472 22.7144C17.4771 22.7835 17.4215 22.866 17.3837 22.957C17.346 23.0479 17.3267 23.1455 17.3272 23.244C17.3285 23.4426 17.4079 23.6328 17.5484 23.7732C17.6888 23.9137 17.879 23.9931 18.0776 23.9944H22.2496C22.6601 23.9966 23.0577 23.8509 23.3696 23.584C23.4048 23.548 23.4544 23.5128 23.4896 23.4784C23.5248 23.444 23.5608 23.3936 23.596 23.3576C23.8639 23.0463 24.0095 22.6482 24.0056 22.2376V18.068C24.0033 17.8692 23.9226 17.6794 23.781 17.5399C23.6394 17.4004 23.4484 17.3225 23.2496 17.3232Z" fill="#CCCCCC"/>
<path d="M0.752207 17.1313C0.94681 17.1281 1.13481 17.202 1.27511 17.3369C1.4154 17.4718 1.49662 17.6567 1.50104 17.8513C1.50194 17.8601 1.50194 17.8689 1.50104 17.8777V21.2441L8.12584 14.6193C8.26651 14.4787 8.45725 14.3998 8.65611 14.3999C8.85498 14.4 9.04568 14.4791 9.18624 14.6197C9.32681 14.7604 9.4057 14.9511 9.40563 15.15C9.40555 15.3489 9.32647 15.5396 9.1858 15.6801L2.56183 22.3041H5.92823C6.0269 22.3018 6.12493 22.3201 6.21612 22.3579C6.30731 22.3956 6.38964 22.4519 6.45782 22.5233C6.56236 22.6282 6.63348 22.7618 6.66227 22.9071C6.69105 23.0524 6.67622 23.2029 6.61959 23.3398C6.56296 23.4767 6.46708 23.5937 6.34405 23.6762C6.22102 23.7587 6.07635 23.8029 5.92823 23.8033H1.75704C1.34636 23.8065 0.94842 23.6607 0.637021 23.3929C0.601821 23.3577 0.552202 23.3217 0.517002 23.2865C0.481802 23.2513 0.445805 23.2017 0.410605 23.1665C0.143118 22.855 -0.00237122 22.4571 0.00103505 22.0465V17.8713C0.00499743 17.6743 0.0857452 17.4867 0.226084 17.3485C0.366423 17.2102 0.555215 17.1323 0.752207 17.1313Z" fill="#CCCCCC"/>
</g>
<defs>
<clipPath id="clip0_693_266">
<rect width="24" height="24" fill="white"/>
</clipPath>
</defs>
</svg>
