<svg width="24" height="24" viewBox="0 0 24 24" fill="none" xmlns="http://www.w3.org/2000/svg">
<path d="M19.75 23.9987H1.75C1.28603 23.9982 0.841221 23.8136 0.513147 23.4856C0.185073 23.1575 0.00052934 22.7127 0 22.2487V4.24872C0.00052934 3.78475 0.185073 3.33994 0.513147 3.01187C0.841221 2.68379 1.28603 2.49925 1.75 2.49872H13.125C13.3239 2.49872 13.5147 2.57774 13.6553 2.71839C13.796 2.85904 13.875 3.04981 13.875 3.24872C13.875 3.44763 13.796 3.6384 13.6553 3.77905C13.5147 3.9197 13.3239 3.99872 13.125 3.99872H1.75C1.68369 3.99872 1.62011 4.02506 1.57322 4.07194C1.52634 4.11883 1.5 4.18241 1.5 4.24872V22.2487C1.5 22.315 1.52634 22.3786 1.57322 22.4255C1.62011 22.4724 1.68369 22.4987 1.75 22.4987H19.75C19.8163 22.4987 19.8799 22.4724 19.9268 22.4255C19.9737 22.3786 20 22.315 20 22.2487V10.4147C20 10.2158 20.079 10.025 20.2197 9.88439C20.3603 9.74374 20.5511 9.66472 20.75 9.66472C20.9489 9.66472 21.1397 9.74374 21.2803 9.88439C21.421 10.025 21.5 10.2158 21.5 10.4147V22.2527C21.4995 22.7167 21.3149 23.1615 20.9869 23.4896C20.6588 23.8176 20.214 24.0022 19.75 24.0027" fill="#073C5A"/>
<path d="M23.9995 3.1657C24.0009 2.93558 23.956 2.70751 23.8673 2.49515C23.7787 2.28278 23.6481 2.09047 23.4835 1.9297L22.0755 0.514703C21.9154 0.352747 21.7249 0.223932 21.515 0.13562C21.3051 0.0473083 21.0799 0.00123169 20.8522 2.4358e-05C20.6244 -0.00118297 20.3987 0.0425027 20.1879 0.128584C19.9771 0.214665 19.7853 0.341454 19.6235 0.501703L19.6135 0.512703L18.2035 1.9257C18.2023 1.92805 18.2004 1.92998 18.198 1.93123C18.1957 1.93248 18.1931 1.93299 18.1905 1.9327L8.79046 11.4207C8.63544 11.5569 8.51541 11.7284 8.44046 11.9207L8.31046 12.2897L7.04145 16.1107C6.99789 16.2444 6.99211 16.3875 7.02476 16.5243C7.0574 16.661 7.12721 16.7861 7.22646 16.8857C7.31915 16.9757 7.43245 17.0416 7.55646 17.0777C7.69767 17.1186 7.84841 17.1119 7.98546 17.0587L11.8385 15.7747L12.0855 15.6967C12.3029 15.6116 12.4996 15.481 12.6625 15.3137L22.0735 5.8157L23.4835 4.4017C23.6474 4.2402 23.7775 4.04761 23.8661 3.8352C23.9547 3.6228 24 3.39485 23.9995 3.1647M11.9815 13.8647L10.2235 12.1077L18.0315 4.2077C18.0832 4.27408 18.1386 4.33751 18.1975 4.3977L19.6055 5.8117C19.6651 5.87231 19.7296 5.92783 19.7985 5.9777L11.9815 13.8647ZM22.4235 3.3417L21.0135 4.7537C20.9907 4.7768 20.9637 4.79515 20.9338 4.80767C20.9039 4.8202 20.8718 4.82665 20.8395 4.82665C20.8071 4.82665 20.775 4.8202 20.7451 4.80767C20.7152 4.79515 20.6882 4.7768 20.6655 4.7537L19.2565 3.3397C19.2102 3.29322 19.1842 3.2303 19.1842 3.1647C19.1842 3.09911 19.2102 3.03618 19.2565 2.9897L20.6665 1.5787C20.6952 1.54549 20.7325 1.52076 20.7742 1.50719C20.816 1.49362 20.8607 1.49172 20.9035 1.5017C20.949 1.51157 20.9897 1.53704 21.0185 1.5737L22.4235 2.9897C22.4483 3.01191 22.468 3.03922 22.4813 3.06977C22.4946 3.10033 22.5011 3.13339 22.5005 3.1667C22.5005 3.19971 22.4935 3.23236 22.4801 3.26251C22.4667 3.29267 22.448 3.31965 22.4235 3.3417Z" fill="#073C5A"/>
</svg>
