<svg xmlns="http://www.w3.org/2000/svg" width="30" height="30.005" viewBox="0 0 30 30.005">
  <g id="Group_7137" data-name="Group 7137" transform="translate(-1138 -463.796)">
    <rect id="Rectangle_7311" data-name="Rectangle 7311" width="30" height="30" transform="translate(1138 463.796)" fill="none" opacity="0.004"/>
    <g id="Group_7134" data-name="Group 7134" transform="translate(1138 464)">
      <path id="Path_24631" data-name="Path 24631" d="M55.778,30.9H33.432a2.175,2.175,0,0,1-2.173-2.173V6.377A2.175,2.175,0,0,1,33.432,4.2H47.553a.931.931,0,1,1,0,1.862H33.432a.31.31,0,0,0-.31.31V28.723a.31.31,0,0,0,.31.31H55.778a.31.31,0,0,0,.31-.31v-14.7a.931.931,0,0,1,1.862,0v14.7A2.175,2.175,0,0,1,55.778,30.9" transform="translate(-31.259 -1.095)" fill="#073c5a"/>
      <path id="Path_24632" data-name="Path 24632" d="M60.781,4.129a2.126,2.126,0,0,0-.641-1.534L58.393.838A2.151,2.151,0,0,0,55.343.823l-.012.014-1.75,1.754a.016.016,0,0,1-.016.009L41.894,14.378a1.6,1.6,0,0,0-.434.616l-.161.458L39.723,20.2a.947.947,0,0,0,.23.962.984.984,0,0,0,.41.238.831.831,0,0,0,.532-.024l4.783-1.594.307-.1a2.036,2.036,0,0,0,.717-.475L58.389,7.419,60.14,5.664a2.148,2.148,0,0,0,.641-1.536M45.861,17.412,43.677,15.23l9.694-9.8a2.809,2.809,0,0,0,.207.236l1.747,1.755a1.9,1.9,0,0,0,.24.206ZM58.826,4.347,57.076,6.1a.3.3,0,0,1-.432,0l0,0L54.893,4.345a.308.308,0,0,1,0-.435l0,0,1.75-1.752a.3.3,0,0,1,.293-.089.249.249,0,0,1,.142.089L58.827,3.91a.287.287,0,0,1,.1.22.291.291,0,0,1-.1.217" transform="translate(-30.986 -0.197)" fill="#073c5a"/>
    </g>
  </g>
</svg>
