<svg width="36" height="36" viewBox="0 0 36 36" xmlns="http://www.w3.org/2000/svg">
    <g clip-path="url(#clip0_30_754)">
        <path
            d="M17.9497 6.39023C17.3176 6.39047 16.6997 6.20326 16.174 5.85227C15.6484 5.50128 15.2386 5.00231 14.9965 4.41841C14.7545 3.83451 14.691 3.19194 14.8142 2.57197C14.9374 1.95201 15.2416 1.38248 15.6885 0.935449C16.1353 0.488416 16.7048 0.183898 17.3247 0.0604975C17.9446 -0.0629027 18.5872 0.000379312 19.1711 0.242211C19.7551 0.484044 20.2543 0.8936 20.6055 1.41914C20.9567 1.94468 21.1441 2.56252 21.1441 3.1946C21.1435 4.04173 20.8068 4.85405 20.2079 5.45317C19.609 6.05229 18.7968 6.38928 17.9497 6.39023ZM17.9497 2.25505C17.7639 2.25505 17.5822 2.31016 17.4277 2.4134C17.2732 2.51665 17.1528 2.66337 17.0817 2.83506C17.0105 3.00675 16.9919 3.19566 17.0282 3.37793C17.0644 3.56019 17.1539 3.72765 17.2853 3.85906C17.4167 3.99046 17.5842 4.07996 17.7664 4.11621C17.9487 4.15247 18.1376 4.13386 18.3093 4.06274C18.481 3.99163 18.6278 3.87119 18.731 3.71667C18.8342 3.56216 18.8893 3.38044 18.8893 3.1946C18.889 2.94561 18.7899 2.70698 18.6137 2.53103C18.4375 2.35508 18.1987 2.25505 17.9497 2.25505Z" />
        <path
            d="M17.9486 36C16.5537 35.9981 15.2164 35.4431 14.23 34.4567C13.2436 33.4703 12.6885 32.133 12.6866 30.738C12.6817 30.5869 12.7072 30.4363 12.7616 30.2952C12.8161 30.1541 12.8983 30.0253 13.0035 29.9167C13.1087 29.808 13.2347 29.7216 13.3739 29.6626C13.5131 29.6036 13.6628 29.5732 13.8141 29.5732C13.9653 29.5732 14.115 29.6036 14.2542 29.6626C14.3934 29.7216 14.5194 29.808 14.6246 29.9167C14.7297 30.0253 14.812 30.1541 14.8664 30.2952C14.9209 30.4363 14.9464 30.5869 14.9414 30.738C14.9414 31.5356 15.2583 32.3004 15.8222 32.8644C16.3862 33.4283 17.1511 33.7452 17.9486 33.7452C18.7462 33.7452 19.5111 33.4283 20.0751 32.8644C20.639 32.3004 20.9558 31.5356 20.9558 30.738C20.9509 30.5869 20.9764 30.4363 21.0309 30.2952C21.0853 30.1541 21.1675 30.0253 21.2727 29.9167C21.3779 29.808 21.5039 29.7216 21.6431 29.6626C21.7823 29.6036 21.932 29.5732 22.0832 29.5732C22.2345 29.5732 22.3842 29.6036 22.5234 29.6626C22.6626 29.7216 22.7886 29.808 22.8937 29.9167C22.9989 30.0253 23.0812 30.1541 23.1356 30.2952C23.1901 30.4363 23.2156 30.5869 23.2106 30.738C23.2087 32.133 22.6537 33.4703 21.6673 34.4567C20.6809 35.4431 19.3436 35.9981 17.9486 36Z" />
        <path
            d="M32.6089 28.9692H3.29053C3.0363 28.9696 2.78942 28.884 2.59001 28.7263C2.39059 28.5686 2.25033 28.348 2.19208 28.1006C2.13383 27.8531 2.161 27.5932 2.26913 27.3632C2.37727 27.1331 2.56002 26.9463 2.78772 26.8332C6.05052 25.212 8.32813 19.782 8.32813 13.6236C8.32321 13.0496 8.3771 12.4766 8.48893 11.9136C8.91506 9.72021 10.0912 7.74346 11.8156 6.32251C13.5399 4.90156 15.705 4.12498 17.9394 4.12598C20.1738 4.12697 22.3382 4.90552 24.0613 6.328C25.7844 7.75049 26.9588 9.72826 27.3829 11.922C27.4929 12.4752 27.5464 13.038 27.5425 13.602C27.5317 19.7976 29.8225 25.2276 33.1009 26.8224C33.3305 26.9337 33.5155 27.1195 33.6257 27.3495C33.7359 27.5796 33.7648 27.8402 33.7077 28.0888C33.6506 28.3374 33.5108 28.5592 33.3112 28.7181C33.1116 28.8769 32.864 28.9633 32.6089 28.9632V28.9692ZM6.48375 26.7144H29.3869C26.8465 23.8344 25.2781 19.0104 25.2865 13.6212C25.2916 13.1978 25.2514 12.7749 25.1665 12.36C24.8436 10.6789 23.9453 9.16278 22.626 8.07205C21.3067 6.98131 19.6487 6.38407 17.9369 6.38294C16.2251 6.3818 14.5663 6.97684 13.2455 8.06582C11.9248 9.1548 11.0245 10.6698 10.6993 12.3504C10.6157 12.757 10.5755 13.1713 10.5793 13.5864C10.5841 18.9936 9.01454 23.8176 6.48375 26.7144Z" />
    </g>
    <defs>
        <clipPath id="clip0_30_754">
            <rect width="36" height="36" fill="white" />
        </clipPath>
    </defs>
</svg>