<svg width="24" height="32" viewBox="0 0 24 32" fill="none" xmlns="http://www.w3.org/2000/svg">
<g clip-path="url(#clip0_620_57)">
<path d="M11.369 16.006C11.0867 15.0542 11.0437 14.0474 11.244 13.075C11.769 13.075 11.719 15.381 11.369 16.006ZM11.263 18.956C10.7697 20.3047 10.1764 21.6147 9.488 22.875C10.7543 22.3009 12.07 21.8427 13.419 21.506C12.5307 20.8151 11.797 19.9466 11.263 18.956ZM5.382 26.756C5.382 26.806 6.207 26.419 7.563 24.244C6.67975 24.932 5.93967 25.7852 5.382 26.756ZM15.5 10H24V30.5C24 30.8978 23.842 31.2794 23.5607 31.5607C23.2794 31.842 22.8978 32 22.5 32H1.5C1.10218 32 0.720644 31.842 0.43934 31.5607C0.158035 31.2794 0 30.8978 0 30.5L0 1.5C0 1.10218 0.158035 0.720649 0.43934 0.439344C0.720644 0.15804 1.10218 4.50678e-06 1.5 4.50678e-06H14V8.5C14 8.89783 14.158 9.27936 14.4393 9.56067C14.7206 9.84197 15.1022 10 15.5 10ZM15 20.738C13.7426 19.9661 12.7976 18.7757 12.331 17.376C12.612 16.22 13.056 14.463 12.719 13.363C12.6756 13.023 12.5218 12.7066 12.2811 12.4625C12.0405 12.2184 11.7263 12.06 11.387 12.0117C11.0476 11.9635 10.7018 12.028 10.4026 12.1953C10.1034 12.3626 9.86749 12.6236 9.731 12.938C9.419 14.082 9.706 15.694 10.237 17.751C9.47801 19.5802 8.62692 21.3698 7.687 23.113C7.681 23.113 7.681 23.119 7.674 23.119C5.98 23.988 3.074 25.9 4.268 27.369C4.61575 27.7468 5.09899 27.9716 5.612 27.994C6.731 27.994 7.843 26.869 9.431 24.131C11.0396 23.5293 12.6895 23.0447 14.368 22.681C15.5939 23.3803 16.9605 23.7967 18.368 23.9C18.6857 23.9081 18.9987 23.8225 19.2681 23.6538C19.5374 23.4851 19.7511 23.2409 19.8825 22.9515C20.0139 22.6622 20.0572 22.3405 20.007 22.0267C19.9567 21.7129 19.8152 21.4209 19.6 21.187C18.731 20.337 16.206 20.581 15 20.737V20.738ZM23.563 6.563L17.438 0.438004C17.2983 0.29868 17.1325 0.188277 16.9501 0.113118C16.7677 0.0379592 16.5723 -0.000479079 16.375 4.50678e-06H16V8H24V7.619C23.9994 7.22313 23.8423 6.84355 23.563 6.563ZM18.931 22.519C19.187 22.35 18.775 21.775 16.256 21.957C18.575 22.944 18.931 22.519 18.931 22.519Z" fill="#157195"/>
</g>
<defs>
<clipPath id="clip0_620_57">
<rect width="24" height="32" fill="white"/>
</clipPath>
</defs>
</svg>
