<svg xmlns="http://www.w3.org/2000/svg" width="33.597" height="35.996" viewBox="0 0 33.597 35.996">
  <g id="Group_7076" data-name="Group 7076" transform="translate(-1756 -534)">
    <path id="Path_24400" data-name="Path 24400" d="M23.7,7.387a.906.906,0,0,0,.9-.9V2.12A2.1,2.1,0,0,0,22.5.02H9.311a.878.878,0,0,0-.648.264l-8.4,8.4A.844.844,0,0,0,0,9.307V33.916a2.1,2.1,0,0,0,2.1,2.1H22.5a2.11,2.11,0,0,0,2.1-2.1V29.429a.9.9,0,1,0-1.8,0v4.488a.3.3,0,0,1-.3.3H2.1a.3.3,0,0,1-.3-.3v-23.7H8.1a2.11,2.11,0,0,0,2.1-2.1V1.82H22.5a.3.3,0,0,1,.3.3V6.487a.9.9,0,0,0,.9.9M8.4,8.119a.3.3,0,0,1-.3.3H3.072L8.4,3.092Z" transform="translate(1756 533.98)" />
    <path id="Path_24401" data-name="Path 24401" d="M31.232,5.419a2.055,2.055,0,0,0-.984-1.272l-2.076-1.2a2.09,2.09,0,0,0-2.868.768L24.1,5.791a.012.012,0,0,1-.012.012L13.306,24.5a1.572,1.572,0,0,0-.252.684l-.036.468-.288,4.823a.913.913,0,0,0,.456.84.945.945,0,0,0,.444.12.8.8,0,0,0,.492-.156l4.08-2.688.264-.168a1.977,1.977,0,0,0,.552-.624l10.8-18.706,1.2-2.076a2.071,2.071,0,0,0,.216-1.6M17.782,26.333,15.19,24.845,24.621,8.491c.084.06.168.12.252.168l2.076,1.2a1.952,1.952,0,0,0,.276.132ZM29.456,6.115l-1.2,2.076a.3.3,0,0,1-.408.108L25.773,7.1a.3.3,0,0,1-.108-.408l1.2-2.076a.294.294,0,0,1,.252-.156.241.241,0,0,1,.156.048l2.076,1.2a.275.275,0,0,1,.144.18.285.285,0,0,1-.036.228" transform="translate(1758.293 534.508)"/>
    <path id="Path_24402" data-name="Path 24402" d="M16.86,12.875h-12a.9.9,0,1,1,0-1.8h12a.9.9,0,0,1,0,1.8" transform="translate(1756.792 536.19)" />
    <path id="Path_24403" data-name="Path 24403" d="M13.26,16.875h-8.4a.9.9,0,0,1,0-1.8h8.4a.9.9,0,0,1,0,1.8" transform="translate(1756.792 536.989)" />
    <path id="Path_24404" data-name="Path 24404" d="M10.86,20.875h-6a.9.9,0,0,1,0-1.8h6a.9.9,0,0,1,0,1.8" transform="translate(1756.792 537.788)" />
  </g>
</svg>
