<svg width="36" height="36" viewBox="0 0 36 36" fill="none" xmlns="http://www.w3.org/2000/svg">
<g clip-path="url(#clip0_116_92)">
<path d="M33.0002 0H23.2002C21.5433 0 20.2002 1.34315 20.2002 3V12.8C20.2002 14.4569 21.5433 15.8 23.2002 15.8H33.0002C34.6571 15.8 36.0002 14.4569 36.0002 12.8V3C36.0002 1.34315 34.6571 0 33.0002 0Z" fill="#12789E"/>
<path d="M33.0002 0.5H23.2002C21.8195 0.5 20.7002 1.61929 20.7002 3V12.8C20.7002 14.1807 21.8195 15.3 23.2002 15.3H33.0002C34.3809 15.3 35.5002 14.1807 35.5002 12.8V3C35.5002 1.61929 34.3809 0.5 33.0002 0.5Z" stroke="#12789E"/>
<path d="M25.9712 20.2002H21.2002C20.6479 20.2002 20.2002 20.6479 20.2002 21.2002V25.9712C20.2002 26.5235 20.6479 26.9712 21.2002 26.9712H25.9712C26.5235 26.9712 26.9712 26.5235 26.9712 25.9712V21.2002C26.9712 20.6479 26.5235 20.2002 25.9712 20.2002Z" fill="#12789E"/>
<path d="M25.9712 20.7002H21.2002C20.9241 20.7002 20.7002 20.9241 20.7002 21.2002V25.9712C20.7002 26.2473 20.9241 26.4712 21.2002 26.4712H25.9712C26.2473 26.4712 26.4712 26.2473 26.4712 25.9712V21.2002C26.4712 20.9241 26.2473 20.7002 25.9712 20.7002Z" stroke="#12789E"/>
<path d="M25.9712 29.2292H21.2002C20.6479 29.2292 20.2002 29.677 20.2002 30.2292V35.0002C20.2002 35.5525 20.6479 36.0002 21.2002 36.0002H25.9712C26.5235 36.0002 26.9712 35.5525 26.9712 35.0002V30.2292C26.9712 29.677 26.5235 29.2292 25.9712 29.2292Z" fill="#12789E"/>
<path d="M25.9712 29.7292H21.2002C20.9241 29.7292 20.7002 29.9531 20.7002 30.2292V35.0002C20.7002 35.2764 20.9241 35.5002 21.2002 35.5002H25.9712C26.2473 35.5002 26.4712 35.2764 26.4712 35.0002V30.2292C26.4712 29.9531 26.2473 29.7292 25.9712 29.7292Z" stroke="#12789E"/>
<path d="M35.0005 20.2002H30.2295C29.6772 20.2002 29.2295 20.6479 29.2295 21.2002V25.9712C29.2295 26.5235 29.6772 26.9712 30.2295 26.9712H35.0005C35.5528 26.9712 36.0005 26.5235 36.0005 25.9712V21.2002C36.0005 20.6479 35.5528 20.2002 35.0005 20.2002Z" fill="#12789E"/>
<path d="M35.0005 20.7002H30.2295C29.9533 20.7002 29.7295 20.9241 29.7295 21.2002V25.9712C29.7295 26.2473 29.9533 26.4712 30.2295 26.4712H35.0005C35.2766 26.4712 35.5005 26.2473 35.5005 25.9712V21.2002C35.5005 20.9241 35.2766 20.7002 35.0005 20.7002Z" stroke="#12789E"/>
<path d="M35.0005 29.2292H30.2295C29.6772 29.2292 29.2295 29.677 29.2295 30.2292V35.0002C29.2295 35.5525 29.6772 36.0002 30.2295 36.0002H35.0005C35.5528 36.0002 36.0005 35.5525 36.0005 35.0002V30.2292C36.0005 29.677 35.5528 29.2292 35.0005 29.2292Z" fill="#12789E"/>
<path d="M35.0005 29.7292H30.2295C29.9533 29.7292 29.7295 29.9531 29.7295 30.2292V35.0002C29.7295 35.2764 29.9533 35.5002 30.2295 35.5002H35.0005C35.2766 35.5002 35.5005 35.2764 35.5005 35.0002V30.2292C35.5005 29.9531 35.2766 29.7292 35.0005 29.7292Z" stroke="#12789E"/>
<path d="M12.8 0H3C1.34315 0 0 1.34315 0 3V12.8C0 14.4569 1.34315 15.8 3 15.8H12.8C14.4569 15.8 15.8 14.4569 15.8 12.8V3C15.8 1.34315 14.4569 0 12.8 0Z" fill="#12789E"/>
<path d="M12.8 0.5H3C1.61929 0.5 0.5 1.61929 0.5 3V12.8C0.5 14.1807 1.61929 15.3 3 15.3H12.8C14.1807 15.3 15.3 14.1807 15.3 12.8V3C15.3 1.61929 14.1807 0.5 12.8 0.5Z" stroke="#12789E"/>
<path d="M12.8 20.2002H3C1.34315 20.2002 0 21.5433 0 23.2002V33.0002C0 34.6571 1.34315 36.0002 3 36.0002H12.8C14.4569 36.0002 15.8 34.6571 15.8 33.0002V23.2002C15.8 21.5433 14.4569 20.2002 12.8 20.2002Z" fill="#12789E"/>
<path d="M12.8 20.7002H3C1.61929 20.7002 0.5 21.8195 0.5 23.2002V33.0002C0.5 34.3809 1.61929 35.5002 3 35.5002H12.8C14.1807 35.5002 15.3 34.3809 15.3 33.0002V23.2002C15.3 21.8195 14.1807 20.7002 12.8 20.7002Z" stroke="#12789E"/>
</g>
<defs>
<clipPath id="clip0_116_92">
<rect width="36" height="36" fill="white"/>
</clipPath>
</defs>
</svg>
