<svg xmlns="http://www.w3.org/2000/svg" width="30.459" height="35.996" viewBox="0 0 30.459 35.996">
  <g id="Group_5828" data-name="Group 5828" transform="translate(0 0)">
    <g id="Path_11355" data-name="Path 11355" transform="translate(0 0)">
      <path id="Path_11390" data-name="Path 11390" d="M151.348,721.825l-8.15-8.1a1.361,1.361,0,0,0-.974-.415H124.3a3.033,3.033,0,0,0-2.114.872,2.968,2.968,0,0,0-.89,2.118v30a3.008,3.008,0,0,0,3.018,3h24.423a3.017,3.017,0,0,0,3.018-3V722.807A1.426,1.426,0,0,0,151.348,721.825ZM148.97,746.3a.234.234,0,0,1-.236.235H124.311a.234.234,0,0,1-.236-.235V716.314a.189.189,0,0,1,.07-.166.235.235,0,0,1,.167-.069h14.673v6.8a3.431,3.431,0,0,0,3.394,3.489h6.592Zm0-22.705h-6.565a.659.659,0,0,1-.64-.692v-6.7l7.2,7.172Z" transform="translate(-121.293 -713.31)" />
    </g>
    <g id="Path_11360" data-name="Path 11360" transform="translate(7.765 17.634)">
      <path id="Path_11391" data-name="Path 11391" d="M140.4,728.816H128.238a1.385,1.385,0,1,1,0-2.769H140.4a1.385,1.385,0,1,1,0,2.769Z" transform="translate(-126.853 -726.047)" />
    </g>
    <g id="Path_11361" data-name="Path 11361" transform="translate(7.765 24.117)">
      <path id="Path_11392" data-name="Path 11392" d="M140.4,733.5H128.238a1.385,1.385,0,0,1,0-2.77H140.4a1.385,1.385,0,0,1,0,2.77Z" transform="translate(-126.853 -730.73)" />
    </g>
  </g>
</svg>
