<svg width="37" height="28" viewBox="0 0 37 28" fill="none" xmlns="http://www.w3.org/2000/svg">
<g clip-path="url(#clip0_130_319)">
<path d="M20.8945 0.6648C16.9996 0.6648 13.2642 2.05224 10.5101 4.52189C7.75597 6.99155 6.20873 10.3411 6.20873 13.8337H1.31348L7.66099 19.5256L7.77521 19.7305L14.3675 13.8337H9.47223C9.45962 11.4507 10.3696 9.13765 12.047 7.28928C13.7244 5.44091 16.0651 4.1718 18.6697 3.69857C21.2743 3.22534 23.9813 3.57732 26.3287 4.69442C28.6761 5.81152 30.5185 7.62452 31.5413 9.82398C32.5641 12.0234 32.704 14.473 31.9371 16.7547C31.1703 19.0363 29.5441 21.0086 27.3362 22.3349C25.1284 23.6612 22.4756 24.2594 19.8307 24.0272C17.1859 23.7951 14.7128 22.7471 12.8336 21.062L10.5165 23.1398C12.2239 24.6727 14.3266 25.8042 16.6382 26.434C18.9499 27.0638 21.3992 27.1724 23.7689 26.7503C26.1386 26.3281 28.3556 25.3883 30.2233 24.0139C32.091 22.6396 33.5517 20.8734 34.476 18.8717C35.4003 16.87 35.7596 14.6948 35.522 12.5388C35.2844 10.3828 34.4573 8.3127 33.114 6.51194C31.7708 4.71119 29.9528 3.23542 27.8212 2.21547C25.6897 1.19552 23.3105 0.662894 20.8945 0.6648ZM19.2627 7.98088V15.297L26.2466 19.0135L27.4215 17.243L21.7104 14.1995V7.98088H19.2627Z" fill="#073C5A" stroke="white"/>
</g>
<defs>
<clipPath id="clip0_130_319">
<rect width="36.1237" height="27.3134" fill="white" transform="translate(0 0.177002)"/>
</clipPath>
</defs>
</svg>
