<svg width="24" height="24" viewBox="0 0 24 24" fill="none" xmlns="http://www.w3.org/2000/svg">
<g clip-path="url(#clip0_191_710)">
<path d="M23.6928 22.6464L17.8449 16.8066C19.4203 14.9849 20.2843 12.6552 20.2777 10.2469C20.2827 7.93832 19.4984 5.69746 18.055 3.89579C16.6116 2.09413 14.5957 0.83989 12.3416 0.341126C10.0875 -0.157637 7.73065 0.12899 5.66184 1.1535C3.59303 2.17801 1.93655 3.87888 0.967092 5.974C-0.00236988 8.06911 -0.226565 10.4326 0.331667 12.6726C0.889899 14.9127 2.19703 16.8946 4.03631 18.2898C5.87558 19.685 8.1365 20.4097 10.4442 20.3436C12.7518 20.2776 14.9676 19.4247 16.7241 17.9266L22.572 23.7664C22.6441 23.842 22.7311 23.9017 22.8275 23.9418C22.9239 23.9819 23.0277 24.0014 23.1321 23.9992C23.2362 23.9995 23.3393 23.9791 23.4355 23.9391C23.5316 23.8991 23.6188 23.8405 23.692 23.7664C23.8387 23.617 23.921 23.416 23.9211 23.2066C23.9213 22.9972 23.8393 22.7961 23.6928 22.6464ZM1.66404 10.2525C1.66451 8.56879 2.16425 6.92307 3.10003 5.52338C4.0358 4.12368 5.36557 3.03285 6.92127 2.38886C8.47696 1.74488 10.1887 1.57667 11.84 1.90543C13.4913 2.23419 15.0081 3.04517 16.1985 4.23587C17.3889 5.42657 18.1995 6.9435 18.5278 8.59486C18.8561 10.2462 18.6874 11.9578 18.0429 13.5133C17.3985 15.0688 16.3073 16.3982 14.9073 17.3336C13.5073 18.2689 11.8614 18.7681 10.1777 18.7681C7.91995 18.766 5.75533 17.8681 4.15911 16.2715C2.56289 14.6749 1.66552 12.5101 1.66404 10.2525Z" fill="#003D5D"/>
</g>
<defs>
<clipPath id="clip0_191_710">
<rect width="24" height="24" fill="white"/>
</clipPath>
</defs>
</svg>
