<svg width="24" height="25" viewBox="0 0 24 25" fill="none" xmlns="http://www.w3.org/2000/svg">
<g clip-path="url(#clip0_244_207)">
<path d="M19.857 22.5189H4.143C3.57464 22.5189 3.02956 22.289 2.62767 21.88C2.22578 21.4709 2 20.916 2 20.3375V4.34235C2 3.76383 2.22578 3.20899 2.62767 2.79991C3.02956 2.39083 3.57464 2.16101 4.143 2.16101H19.857C20.4254 2.16101 20.9704 2.39083 21.3723 2.79991C21.7742 3.20899 22 3.76383 22 4.34235V20.3375C22 20.916 21.7742 21.4709 21.3723 21.88C20.9704 22.289 20.4254 22.5189 19.857 22.5189ZM10.719 18.0625L18.933 9.70156C18.9993 9.63407 19.052 9.55393 19.0879 9.46573C19.1238 9.37753 19.1423 9.283 19.1423 9.18752C19.1423 9.09205 19.1238 8.99751 19.0879 8.90931C19.052 8.82111 18.9993 8.74098 18.933 8.67349L17.923 7.64542C17.8567 7.57789 17.778 7.52432 17.6913 7.48778C17.6047 7.45123 17.5118 7.43242 17.418 7.43242C17.3242 7.43242 17.2313 7.45123 17.1447 7.48778C17.058 7.52432 16.9793 7.57789 16.913 7.64542L10.213 14.4653L7.087 11.2803C7.02069 11.2128 6.94197 11.1592 6.85532 11.1227C6.76867 11.0861 6.67579 11.0673 6.582 11.0673C6.48821 11.0673 6.39533 11.0861 6.30868 11.1227C6.22203 11.1592 6.14331 11.2128 6.077 11.2803L5.067 12.3084C5.00066 12.3759 4.94804 12.456 4.91213 12.5442C4.87623 12.6324 4.85775 12.7269 4.85775 12.8224C4.85775 12.9179 4.87623 13.0124 4.91213 13.1006C4.94804 13.1888 5.00066 13.269 5.067 13.3365L9.71 18.0625C9.77631 18.1301 9.85503 18.1836 9.94168 18.2202C10.0283 18.2567 10.1212 18.2755 10.215 18.2755C10.3088 18.2755 10.4017 18.2567 10.4883 18.2202C10.575 18.1836 10.6537 18.1301 10.72 18.0625H10.719Z" fill="#F9A634"/>
</g>
<defs>
<clipPath id="clip0_244_207">
<rect width="20" height="20.3579" fill="white" transform="translate(2 2.16101)"/>
</clipPath>
</defs>
</svg>
