<svg width="24" height="25" viewBox="0 0 24 25" fill="none" xmlns="http://www.w3.org/2000/svg">
<g clip-path="url(#clip0_244_219)">
<path d="M12 24.5905C18.6274 24.5905 24 19.1218 24 12.3758C24 5.62975 18.6274 0.161041 12 0.161041C5.37258 0.161041 0 5.62975 0 12.3758C0 19.1218 5.37258 24.5905 12 24.5905Z" fill="white"/>
<path d="M12 24.0815C18.3513 24.0815 23.5 18.8407 23.5 12.3757C23.5 5.91083 18.3513 0.669983 12 0.669983C5.64873 0.669983 0.5 5.91083 0.5 12.3757C0.5 18.8407 5.64873 24.0815 12 24.0815Z" stroke="#F9A634"/>
<path d="M12 17.4652C14.7614 17.4652 17 15.1866 17 12.3757C17 9.56492 14.7614 7.28629 12 7.28629C9.23858 7.28629 7 9.56492 7 12.3757C7 15.1866 9.23858 17.4652 12 17.4652Z" fill="#F9A634"/>
</g>
<defs>
<clipPath id="clip0_244_219">
<rect width="24" height="24.4294" fill="white" transform="translate(0 0.161041)"/>
</clipPath>
</defs>
</svg>
