<svg width="24" height="24" viewBox="0 0 24 24" fill="none" xmlns="http://www.w3.org/2000/svg">
<g clip-path="url(#clip0_665_103)">
<path d="M22.2496 0H1.7496C1.28642 0.00272899 0.842986 0.187938 0.515462 0.515462C0.187938 0.842986 0.00272899 1.28642 0 1.7496L0 22.2496C0.000423279 22.7136 0.184866 23.1584 0.512865 23.4866C0.840864 23.8147 1.28563 23.9994 1.7496 24H22.2496C22.4796 24.0006 22.7075 23.9558 22.9202 23.868C23.1329 23.7803 23.3261 23.6514 23.4887 23.4887C23.6514 23.3261 23.7803 23.1329 23.868 22.9202C23.9558 22.7075 24.0006 22.4796 24 22.2496V1.7496C23.9994 1.28563 23.8147 0.840864 23.4866 0.512865C23.1584 0.184866 22.7136 0.000423279 22.2496 0ZM7.5 22.5H1.7496C1.71673 22.5003 1.68413 22.4941 1.6537 22.4817C1.62328 22.4692 1.59563 22.4509 1.57239 22.4276C1.54915 22.4044 1.53078 22.3767 1.51835 22.3463C1.50592 22.3159 1.49968 22.2833 1.5 22.2504V20H7.5V22.5ZM7.5 18.5H1.5V15H7.5V18.5ZM7.5 13.5H1.5V10H7.5V13.5ZM7.5 8.5H1.5V5H7.5V8.5ZM15 8.5H9V5H15V8.5ZM15 13.5H9V10H15V13.5ZM15 18.5H9V15H15V18.5ZM15 22.5H9V20H15V22.5ZM22.5 22.2504C22.5004 22.2833 22.4943 22.316 22.4819 22.3465C22.4695 22.3771 22.4512 22.4048 22.4279 22.4281C22.4046 22.4515 22.377 22.4699 22.3465 22.4824C22.316 22.4949 22.2833 22.5011 22.2504 22.5008H16.5V20H22.5V22.2504ZM22.5 18.5008H16.5V15H22.5V18.5008ZM22.5 13.5008H16.5V10H22.5V13.5008ZM22.5 8.5008H16.5V5H22.5V8.5008ZM22.5 3.5008H1.5V1.7496C1.50124 1.68365 1.52804 1.62076 1.57476 1.57419C1.62147 1.52763 1.68445 1.50103 1.7504 1.5H22.2496C22.3157 1.50103 22.3788 1.52774 22.4255 1.57448C22.4723 1.62122 22.499 1.68431 22.5 1.7504V3.5008Z" fill="#073C5A"/>
</g>
<defs>
<clipPath id="clip0_665_103">
<rect width="24" height="24.0008" fill="white"/>
</clipPath>
</defs>
</svg>
