<svg width="32" height="32" viewBox="0 0 32 32" fill="none" xmlns="http://www.w3.org/2000/svg">
<path d="M6 9C7.65685 9 9 7.65685 9 6C9 4.34315 7.65685 3 6 3C4.34315 3 3 4.34315 3 6C3 7.65685 4.34315 9 6 9Z" stroke="#073C5A" stroke-width="2" stroke-miterlimit="10" stroke-linecap="round" stroke-linejoin="round"/>
<path d="M26 9C27.6569 9 29 7.65685 29 6C29 4.34315 27.6569 3 26 3C24.3431 3 23 4.34315 23 6C23 7.65685 24.3431 9 26 9Z" stroke="#073C5A" stroke-width="2" stroke-miterlimit="10" stroke-linecap="round" stroke-linejoin="round"/>
<path d="M6 29C7.65685 29 9 27.6569 9 26C9 24.3431 7.65685 23 6 23C4.34315 23 3 24.3431 3 26C3 27.6569 4.34315 29 6 29Z" stroke="#073C5A" stroke-width="2" stroke-miterlimit="10" stroke-linecap="round" stroke-linejoin="round"/>
<path d="M26 29C27.6569 29 29 27.6569 29 26C29 24.3431 27.6569 23 26 23C24.3431 23 23 24.3431 23 26C23 27.6569 24.3431 29 26 29Z" stroke="#073C5A" stroke-width="2" stroke-miterlimit="10" stroke-linecap="round" stroke-linejoin="round"/>
<path d="M6 9V23" stroke="#073C5A" stroke-width="2" stroke-miterlimit="10" stroke-linecap="round" stroke-linejoin="round"/>
<path d="M26 9V23" stroke="#073C5A" stroke-width="2" stroke-miterlimit="10" stroke-linecap="round" stroke-linejoin="round"/>
<path d="M9 26H23" stroke="#073C5A" stroke-width="2" stroke-miterlimit="10" stroke-linecap="round" stroke-linejoin="round"/>
<path d="M9 6H23" stroke="#073C5A" stroke-width="2" stroke-miterlimit="10" stroke-linecap="round" stroke-linejoin="round"/>
<path d="M11 13V11H21V13" stroke="#073C5A" stroke-width="2" stroke-miterlimit="10" stroke-linecap="round" stroke-linejoin="round"/>
<path d="M14 21H18" stroke="#073C5A" stroke-width="2" stroke-miterlimit="10" stroke-linecap="round" stroke-linejoin="round"/>
<path d="M16 21V11" stroke="#073C5A" stroke-width="2" stroke-miterlimit="10" stroke-linecap="round" stroke-linejoin="round"/>
</svg>
