<svg width="45" height="45" viewBox="0 0 45 45" fill="none" xmlns="http://www.w3.org/2000/svg">
<path d="M36.2807 30.0555C35.897 30.0576 35.5272 29.9126 35.2472 29.6504L22.8452 17.8574C22.7512 17.7707 22.628 17.7225 22.5001 17.7225C22.3723 17.7225 22.2491 17.7707 22.1552 17.8574L9.75316 29.6504C9.47248 29.9118 9.1032 30.0572 8.71967 30.0572C8.33613 30.0572 7.96685 29.9118 7.68617 29.6504C7.552 29.5242 7.44509 29.3718 7.37201 29.2027C7.29893 29.0336 7.26123 28.8514 7.26123 28.6672C7.26123 28.483 7.29893 28.3007 7.37201 28.1317C7.44509 27.9626 7.552 27.8102 7.68617 27.684L20.0896 15.8924C20.7446 15.2834 21.6058 14.9449 22.5001 14.9449C23.3945 14.9449 24.2557 15.2834 24.9107 15.8924L37.3126 27.684C37.4468 27.8102 37.5538 27.9626 37.6268 28.1317C37.6999 28.3007 37.7376 28.483 37.7376 28.6672C37.7376 28.8514 37.6999 29.0336 37.6268 29.2027C37.5538 29.3718 37.4468 29.5242 37.3126 29.6504C37.033 29.9123 36.6638 30.0572 36.2807 30.0555Z" fill="#073C5A"/>
</svg>
