<svg width="24" height="26" viewBox="0 0 24 26" fill="none" xmlns="http://www.w3.org/2000/svg">
<path d="M22.0875 25.027H1.90688C1.40161 25.0259 0.917323 24.8212 0.559965 24.4575C0.202607 24.0939 0.0012679 23.6009 0 23.0865V15.3098C0 15.0889 0.0862153 14.877 0.239669 14.7208C0.393124 14.5646 0.601243 14.4767 0.818259 14.4767C1.03528 14.4767 1.24341 14.5646 1.39686 14.7208C1.55032 14.877 1.63652 15.0889 1.63652 15.3098V23.0865C1.63673 23.1601 1.66555 23.2306 1.71666 23.2826C1.76776 23.3346 1.837 23.364 1.90928 23.3642H22.0907C22.1631 23.3642 22.2324 23.3349 22.2836 23.2829C22.3347 23.2308 22.3635 23.1601 22.3635 23.0865V15.3098C22.3635 15.2004 22.3846 15.0921 22.4258 14.991C22.4669 14.8899 22.5272 14.7981 22.6031 14.7207C22.6791 14.6434 22.7693 14.582 22.8686 14.5402C22.9679 14.4983 23.0743 14.4767 23.1817 14.4767C23.2892 14.4767 23.3956 14.4983 23.4949 14.5402C23.5941 14.582 23.6844 14.6434 23.7603 14.7207C23.8363 14.7981 23.8966 14.8899 23.9377 14.991C23.9788 15.0921 24 15.2004 24 15.3098V23.0865C23.9987 23.6019 23.7966 24.0957 23.4381 24.4595C23.0795 24.8234 22.5938 25.0274 22.0875 25.027Z" fill="#073C5A"/>
<path d="M18.748 7.83924C18.6734 7.91881 18.5836 7.98216 18.4842 8.02543C18.3848 8.0687 18.2778 8.09098 18.1697 8.09098C18.0616 8.09098 17.9546 8.0687 17.8553 8.02543C17.7559 7.98216 17.6661 7.91881 17.5914 7.83924L12.8138 2.97453V18.0898C12.8138 18.3108 12.7276 18.5227 12.5742 18.6789C12.4207 18.8351 12.2126 18.9229 11.9956 18.9229C11.7785 18.9229 11.5704 18.8351 11.417 18.6789C11.2635 18.5227 11.1773 18.3108 11.1773 18.0898V2.97533L6.39889 7.84004C6.32451 7.91951 6.23467 7.98232 6.13509 8.02438C6.03551 8.06645 5.92838 8.08689 5.82059 8.08437C5.71309 8.08483 5.60659 8.06345 5.50729 8.0215C5.40799 7.97955 5.3179 7.91785 5.24229 7.84004C5.09018 7.68321 5.00488 7.47172 5.00488 7.25132C5.00488 7.03092 5.09018 6.81938 5.24229 6.66255L10.6422 1.16514C10.9565 0.841742 11.3748 0.644559 11.8204 0.60977C11.8748 0.60977 11.9404 0.598389 11.9948 0.598389C12.0491 0.598389 12.1148 0.60977 12.1691 0.60977C12.6147 0.644559 13.033 0.841742 13.3473 1.16514L18.7472 6.66255C18.8992 6.81924 18.9845 7.03052 18.9847 7.25072C18.9848 7.47092 18.8998 7.68235 18.748 7.83924Z" fill="#073C5A"/>
</svg>
