<svg width="42" height="42" viewBox="0 0 42 42" fill="none" xmlns="http://www.w3.org/2000/svg">
<path d="M35 0H7C3.13401 0 0 3.13401 0 7V35C0 38.866 3.13401 42 7 42H35C38.866 42 42 38.866 42 35V7C42 3.13401 38.866 0 35 0Z" fill="#073C5A"/>
<path d="M35 0.5H7C3.41015 0.5 0.5 3.41015 0.5 7V35C0.5 38.5899 3.41015 41.5 7 41.5H35C38.5899 41.5 41.5 38.5899 41.5 35V7C41.5 3.41015 38.5899 0.5 35 0.5Z" stroke="#063B58"/>
<path d="M30.25 32H11.75C11.286 31.9995 10.8412 31.815 10.5132 31.4869C10.1851 31.1588 10.0005 30.714 10 30.25V23.25C10 23.0511 10.079 22.8603 10.2197 22.7197C10.3603 22.579 10.5511 22.5 10.75 22.5C10.9489 22.5 11.1397 22.579 11.2803 22.7197C11.421 22.8603 11.5 23.0511 11.5 23.25V30.25C11.5003 30.3162 11.5267 30.3797 11.5735 30.4265C11.6203 30.4733 11.6838 30.4997 11.75 30.5H30.25C30.3163 30.5 30.3799 30.4737 30.4268 30.4268C30.4737 30.3799 30.5 30.3163 30.5 30.25V23.25C30.5 23.0511 30.579 22.8603 30.7197 22.7197C30.8603 22.579 31.0511 22.5 31.25 22.5C31.4489 22.5 31.6397 22.579 31.7803 22.7197C31.921 22.8603 32 23.0511 32 23.25V30.25C31.9995 30.714 31.8149 31.1588 31.4869 31.4869C31.1588 31.815 30.714 31.9995 30.25 32Z" fill="white"/>
<path d="M27.1885 16.5229C27.1198 16.594 27.0375 16.6506 26.9464 16.6892C26.8554 16.7278 26.7575 16.7478 26.6585 16.7478C26.5596 16.7478 26.4617 16.7278 26.3707 16.6892C26.2796 16.6506 26.1973 16.594 26.1285 16.5229L21.7485 12.1429V25.7529C21.7485 25.9518 21.6695 26.1426 21.5289 26.2832C21.3882 26.4239 21.1974 26.5029 20.9985 26.5029C20.7996 26.5029 20.6089 26.4239 20.4682 26.2832C20.3275 26.1426 20.2485 25.9518 20.2485 25.7529V12.1429L15.8685 16.5229C15.8004 16.5944 15.718 16.651 15.6267 16.6888C15.5355 16.7267 15.4373 16.7451 15.3385 16.7429C15.24 16.7433 15.1424 16.724 15.0514 16.6862C14.9604 16.6484 14.8778 16.5929 14.8085 16.5229C14.6691 16.3818 14.5908 16.1914 14.5908 15.9929C14.5908 15.7945 14.6691 15.604 14.8085 15.4629L19.7585 10.5129C20.0465 10.2215 20.43 10.044 20.8385 10.0129C20.8885 10.0129 20.9485 10.0029 20.9985 10.0029C21.0485 10.0029 21.1085 10.0129 21.1585 10.0129C21.567 10.044 21.9505 10.2215 22.2385 10.5129L27.1885 15.4629C27.328 15.604 27.4062 15.7945 27.4062 15.9929C27.4062 16.1914 27.328 16.3818 27.1885 16.5229Z" fill="white"/>
</svg>
