<svg xmlns="http://www.w3.org/2000/svg" width="35.996" height="35.996" viewBox="0 0 35.996 35.996">
  <g id="Group_5825" data-name="Group 5825" transform="translate(0 0)">
    <path id="Path_11411" data-name="Path 11411" d="M36.212,814.326a7.875,7.875,0,1,1,7.876-7.875A7.884,7.884,0,0,1,36.212,814.326Zm0-12.98a5.106,5.106,0,1,0,5.107,5.106A5.111,5.111,0,0,0,36.212,801.346Z" transform="translate(-21.936 -798.577)"/>
    <g id="Group_2695" data-name="Group 2695" transform="translate(0 17.997)">
      <path id="Path_11412" data-name="Path 11412" d="M50.018,829.575a1.383,1.383,0,0,1-1.384-1.384v-4.153a9.7,9.7,0,0,0-9.691-9.691H36.174a9.7,9.7,0,0,0-9.691,9.691v4.153a1.384,1.384,0,1,1-2.769,0v-4.153a12.473,12.473,0,0,1,12.46-12.46h2.769a12.473,12.473,0,0,1,12.46,12.46v4.153A1.383,1.383,0,0,1,50.018,829.575Z" transform="translate(-23.714 -811.577)"/>
    </g>
    <path id="Path_11413" data-name="Path 11413" d="M41.687,814.015a1.384,1.384,0,0,1-.377-2.716,5.108,5.108,0,0,0,0-9.83,1.384,1.384,0,0,1,.755-2.664,7.876,7.876,0,0,1,0,15.157A1.325,1.325,0,0,1,41.687,814.015Z" transform="translate(-17.336 -798.51)"/>
    <path id="Path_11414" data-name="Path 11414" d="M51.1,829.383A1.383,1.383,0,0,1,49.718,828v-4.153a9.733,9.733,0,0,0-6.316-9.086,1.385,1.385,0,0,1,.966-2.6,12.515,12.515,0,0,1,8.118,11.682V828A1.383,1.383,0,0,1,51.1,829.383Z" transform="translate(-16.491 -793.388)"/>
  </g>
</svg>
