<svg xmlns="http://www.w3.org/2000/svg" width="30" height="30" viewBox="0 0 30 30">
  <g id="Group_5871" data-name="Group 5871" transform="translate(0.498 0)">
    <rect id="Rectangle_3306" data-name="Rectangle 3306" width="30" height="30" transform="translate(-0.498 0)" fill="none"/>
    <g id="Group_2577" data-name="Group 2577" transform="translate(-0.498 0.001)">
      <path id="Path_11315" data-name="Path 11315" d="M479.763,462.634a15,15,0,1,1,15-15A15.018,15.018,0,0,1,479.763,462.634Zm0-27.955a12.955,12.955,0,1,0,12.955,12.955A12.97,12.97,0,0,0,479.763,434.68Z" transform="translate(-464.763 -432.634)" fill="#073c5a"/>
      <path id="Path_11316" data-name="Path 11316" d="M477.286,446.436a4.773,4.773,0,1,1,4.773-4.773A4.779,4.779,0,0,1,477.286,446.436Zm0-7.5a2.727,2.727,0,1,0,2.727,2.727A2.73,2.73,0,0,0,477.286,438.937Z" transform="translate(-461.945 -431.086)" fill="#073c5a"/>
      <path id="Path_11317" data-name="Path 11317" d="M485.534,452.393a1.022,1.022,0,0,1-1.02-.972,4.742,4.742,0,0,0-4.931-4.484h-3.048a4.762,4.762,0,0,0-4.979,4.482,1.023,1.023,0,1,1-2.043-.1,6.769,6.769,0,0,1,7.069-6.425h2.954a6.785,6.785,0,0,1,7.02,6.427,1.024,1.024,0,0,1-.971,1.072Z" transform="translate(-463.036 -428.179)" fill="#073c5a"/>
    </g>
  </g>
</svg>
