<svg xmlns="http://www.w3.org/2000/svg" width="36" height="32.286" viewBox="0 0 36 32.286">
  <g id="Group_7399" data-name="Group 7399" transform="translate(-735.149 -438)">
    <path id="Path_11413" data-name="Path 11413" d="M45.781,812.443a1.242,1.242,0,0,0,.338-2.436,4.582,4.582,0,0,1,0-8.817,1.242,1.242,0,0,0-.677-2.389,7.065,7.065,0,0,0,0,13.595A1.188,1.188,0,0,0,45.781,812.443Z" transform="translate(699.811 -360.535)" />
    <path id="Path_11411" data-name="Path 11411" d="M35.4,812.7a7.063,7.063,0,1,1,7.062-7.063A7.07,7.07,0,0,1,35.4,812.7Zm0-11.643a4.58,4.58,0,1,0,4.579,4.58A4.583,4.583,0,0,0,35.4,801.061Z" transform="translate(718.759 -360.577)" />
    <g id="Group_2695" data-name="Group 2695" transform="translate(741.357 454.143)">
      <path id="Path_11412" data-name="Path 11412" d="M46.059,827.72a1.241,1.241,0,0,1-1.241-1.242v-3.725a8.7,8.7,0,0,0-8.69-8.692H34.886a8.7,8.7,0,0,0-8.69,8.692v3.725a1.241,1.241,0,1,1-2.483,0v-3.725a11.186,11.186,0,0,1,11.172-11.176h1.241A11.186,11.186,0,0,1,47.3,822.753v3.725A1.241,1.241,0,0,1,46.059,827.72Z" transform="translate(-23.714 -811.577)" />
    </g>
    <path id="Path_11413-2" data-name="Path 11413" d="M41.544,812.443a1.242,1.242,0,0,1-.338-2.436,4.582,4.582,0,0,0,0-8.817,1.242,1.242,0,0,1,.677-2.389,7.065,7.065,0,0,1,0,13.595A1.188,1.188,0,0,1,41.544,812.443Z" transform="translate(721.283 -360.535)"/>
    <path id="Path_11414" data-name="Path 11414" d="M50.214,827.6a1.24,1.24,0,0,1-1.241-1.242v-3.725a8.73,8.73,0,0,0-5.663-8.15,1.242,1.242,0,0,1,.866-2.328,11.226,11.226,0,0,1,7.279,10.478v3.725A1.24,1.24,0,0,1,50.214,827.6Z" transform="translate(719.694 -357.314)"/>
    <path id="Path_11414-2" data-name="Path 11414" d="M43.742,827.6a1.24,1.24,0,0,0,1.241-1.242v-3.725a8.73,8.73,0,0,1,5.663-8.15,1.242,1.242,0,0,0-.866-2.328A11.226,11.226,0,0,0,42.5,822.633v3.725A1.24,1.24,0,0,0,43.742,827.6Z" transform="translate(692.649 -357.314)"/>
  </g>
</svg>
